<?xml version="1.0" encoding="UTF-8"?>
<svg xmlns="http://www.w3.org/2000/svg" xmlns:xlink="http://www.w3.org/1999/xlink" width="64px" height="64px" viewBox="0 0 64 64" version="1.1">
<g id="surface1">
<path style=" stroke:none;fill-rule:nonzero;fill:rgb(100%,17.647059%,12.54902%);fill-opacity:1;" d="M 62.996094 14.453125 C 63.019531 14.539062 63.03125 14.625 63.03125 14.714844 L 63.03125 28.429688 C 63.03125 28.785156 62.839844 29.117188 62.527344 29.296875 L 51.019531 35.921875 L 51.019531 49.058594 C 51.019531 49.414062 50.828125 49.746094 50.519531 49.925781 L 26.492188 63.753906 C 26.4375 63.785156 26.375 63.804688 26.316406 63.828125 C 26.292969 63.835938 26.273438 63.847656 26.25 63.855469 C 26.082031 63.898438 25.90625 63.898438 25.738281 63.855469 C 25.710938 63.847656 25.683594 63.832031 25.660156 63.824219 C 25.601562 63.804688 25.546875 63.785156 25.492188 63.753906 L 1.472656 49.925781 C 1.160156 49.746094 0.96875 49.414062 0.96875 49.058594 L 0.96875 7.917969 C 0.96875 7.828125 0.980469 7.738281 1.003906 7.652344 C 1.011719 7.625 1.03125 7.597656 1.039062 7.570312 C 1.058594 7.519531 1.074219 7.464844 1.101562 7.414062 C 1.121094 7.382812 1.148438 7.355469 1.171875 7.328125 C 1.199219 7.285156 1.226562 7.246094 1.261719 7.210938 C 1.289062 7.179688 1.328125 7.160156 1.359375 7.136719 C 1.394531 7.105469 1.429688 7.074219 1.46875 7.050781 L 1.472656 7.050781 L 13.480469 0.132812 C 13.792969 -0.0429688 14.171875 -0.0429688 14.480469 0.132812 L 26.492188 7.050781 L 26.496094 7.050781 C 26.535156 7.074219 26.570312 7.105469 26.605469 7.132812 C 26.636719 7.160156 26.675781 7.179688 26.703125 7.210938 C 26.738281 7.246094 26.761719 7.285156 26.792969 7.328125 C 26.8125 7.355469 26.84375 7.382812 26.859375 7.414062 C 26.890625 7.464844 26.90625 7.519531 26.925781 7.570312 C 26.9375 7.597656 26.953125 7.625 26.960938 7.65625 C 26.984375 7.742188 26.996094 7.828125 26.996094 7.917969 L 26.996094 33.613281 L 37.003906 27.847656 L 37.003906 14.714844 C 37.003906 14.625 37.015625 14.535156 37.039062 14.453125 C 37.046875 14.421875 37.0625 14.398438 37.074219 14.367188 C 37.09375 14.316406 37.113281 14.261719 37.140625 14.214844 C 37.15625 14.179688 37.1875 14.15625 37.207031 14.125 C 37.238281 14.085938 37.261719 14.042969 37.296875 14.007812 C 37.324219 13.980469 37.363281 13.957031 37.394531 13.933594 C 37.433594 13.902344 37.464844 13.871094 37.503906 13.847656 L 49.519531 6.929688 C 49.828125 6.753906 50.207031 6.753906 50.519531 6.929688 L 62.527344 13.847656 C 62.570312 13.871094 62.605469 13.902344 62.640625 13.933594 C 62.671875 13.957031 62.710938 13.980469 62.738281 14.007812 C 62.773438 14.042969 62.796875 14.085938 62.828125 14.125 C 62.851562 14.15625 62.878906 14.179688 62.894531 14.214844 C 62.925781 14.261719 62.941406 14.316406 62.960938 14.367188 C 62.972656 14.398438 62.988281 14.421875 62.996094 14.453125 Z M 61.027344 27.847656 L 61.027344 16.445312 L 56.824219 18.867188 L 51.019531 22.207031 L 51.019531 33.613281 Z M 49.015625 48.476562 L 49.015625 37.066406 L 43.304688 40.328125 L 26.996094 49.636719 L 26.996094 61.15625 Z M 2.972656 9.648438 L 2.972656 48.476562 L 24.992188 61.15625 L 24.992188 49.640625 L 13.488281 43.128906 L 13.484375 43.125 L 13.480469 43.125 C 13.441406 43.101562 13.410156 43.070312 13.371094 43.042969 C 13.339844 43.015625 13.304688 42.996094 13.277344 42.96875 L 13.273438 42.964844 C 13.242188 42.933594 13.21875 42.894531 13.191406 42.859375 C 13.167969 42.828125 13.136719 42.796875 13.117188 42.761719 L 13.117188 42.757812 C 13.09375 42.722656 13.078125 42.675781 13.0625 42.632812 C 13.046875 42.597656 13.027344 42.5625 13.015625 42.519531 C 13.003906 42.472656 13 42.421875 12.996094 42.375 C 12.992188 42.335938 12.980469 42.300781 12.980469 42.261719 L 12.980469 15.410156 L 7.175781 12.066406 Z M 13.984375 2.15625 L 3.976562 7.917969 L 13.980469 13.675781 L 23.988281 7.914062 L 13.980469 2.15625 Z M 19.1875 38.105469 L 24.992188 34.765625 L 24.992188 9.648438 L 20.789062 12.066406 L 14.984375 15.410156 L 14.984375 40.527344 Z M 50.019531 8.953125 L 40.011719 14.714844 L 50.019531 20.476562 L 60.023438 14.714844 Z M 49.015625 22.207031 L 43.210938 18.867188 L 39.007812 16.445312 L 39.007812 27.847656 L 44.8125 31.191406 L 49.015625 33.613281 Z M 25.992188 47.90625 L 40.667969 39.527344 L 48.003906 35.339844 L 38.007812 29.585938 L 26.496094 36.210938 L 16 42.253906 Z M 25.992188 47.90625 "/>
</g>
</svg>
