<?xml version="1.0" encoding="UTF-8"?>
<svg xmlns="http://www.w3.org/2000/svg" xmlns:xlink="http://www.w3.org/1999/xlink" width="64px" height="64px" viewBox="0 0 64 64" version="1.1">
<g id="surface1">
<path style=" stroke:none;fill-rule:nonzero;fill:rgb(0%,73.72549%,94.901961%);fill-opacity:1;" d="M 28.199219 63.960938 C 22.210938 63.527344 16.289062 62.019531 12.65625 60 C 10.589844 58.851562 9.011719 57.4375 8.394531 56.179688 L 8.027344 55.429688 L 8.027344 8.417969 L 8.320312 7.828125 C 9.621094 5.1875 13.769531 2.804688 19.566406 1.378906 C 21.535156 0.890625 24.375 0.410156 26.691406 0.164062 C 29.058594 -0.0820312 35.332031 -0.046875 37.691406 0.234375 C 43.964844 0.96875 49.300781 2.621094 52.589844 4.839844 C 53.859375 5.695312 55.160156 7.0625 55.601562 8.003906 L 55.980469 8.8125 L 55.917969 55.679688 L 55.613281 56.296875 C 55.445312 56.636719 54.941406 57.304688 54.492188 57.78125 C 51.757812 60.679688 45.890625 62.824219 38.195312 63.738281 C 36.625 63.925781 29.808594 64.074219 28.199219 63.960938 Z M 39.242188 43.820312 C 39.21875 43.757812 38.324219 42.960938 37.25 42.046875 C 36.179688 41.128906 35.257812 40.339844 35.199219 40.285156 C 35.144531 40.234375 35.339844 40.046875 35.640625 39.871094 C 35.9375 39.699219 36.511719 39.210938 36.910156 38.792969 C 38.082031 37.5625 38.632812 36.046875 38.632812 34.0625 C 38.632812 32.105469 38.039062 30.527344 36.84375 29.324219 C 35.640625 28.109375 34.261719 27.589844 32.25 27.589844 C 29.152344 27.589844 26.769531 29.398438 26.011719 32.328125 C 25.75 33.335938 25.75 35.375 26.011719 36.269531 C 26.699219 38.601562 28.566406 40.296875 30.886719 40.695312 C 31.671875 40.828125 31.78125 40.886719 32.316406 41.472656 C 32.632812 41.820312 33.289062 42.515625 33.765625 43.015625 L 34.640625 43.929688 L 36.960938 43.929688 C 38.238281 43.929688 39.265625 43.878906 39.242188 43.820312 Z M 31.28125 37.320312 C 30.722656 37.027344 30.511719 36.800781 30.191406 36.15625 C 29.945312 35.652344 29.902344 35.371094 29.902344 34.1875 C 29.898438 32.984375 29.9375 32.726562 30.195312 32.203125 C 30.613281 31.351562 31.191406 30.945312 32.089844 30.882812 C 33.335938 30.789062 34.058594 31.402344 34.433594 32.875 C 34.898438 34.679688 34.386719 36.597656 33.277344 37.234375 C 32.695312 37.566406 31.828125 37.605469 31.28125 37.320312 Z M 20.992188 40.667969 C 23.425781 40.207031 24.808594 38.792969 24.808594 36.761719 C 24.808594 34.957031 23.914062 33.90625 21.449219 32.808594 C 20.039062 32.175781 19.527344 31.78125 19.527344 31.320312 C 19.527344 30.9375 20.011719 30.515625 20.578125 30.410156 C 21.128906 30.308594 22.589844 30.5625 23.453125 30.910156 L 24.179688 31.203125 L 24.179688 28 L 23.394531 27.824219 C 22.90625 27.71875 21.886719 27.652344 20.722656 27.65625 C 19.070312 27.65625 18.75 27.695312 18.128906 27.941406 C 16.3125 28.664062 15.453125 29.890625 15.464844 31.734375 C 15.480469 33.464844 16.390625 34.542969 18.660156 35.511719 C 19.996094 36.082031 20.535156 36.519531 20.535156 37.035156 C 20.535156 38.128906 18.710938 38.261719 16.78125 37.3125 C 16.253906 37.050781 15.777344 36.816406 15.726562 36.789062 C 15.675781 36.765625 15.632812 37.511719 15.632812 38.453125 C 15.632812 40.15625 15.632812 40.164062 15.941406 40.28125 C 17.101562 40.722656 19.667969 40.917969 20.992188 40.667969 Z M 48.816406 39.089844 L 48.816406 37.644531 L 44.414062 37.644531 L 44.414062 27.714844 L 40.519531 27.714844 L 40.519531 40.535156 L 48.816406 40.535156 Z M 35.238281 13.757812 C 39.109375 13.488281 42.011719 12.984375 44.566406 12.128906 C 47.109375 11.277344 48.613281 10.25 48.949219 9.128906 C 49.078125 8.695312 49.070312 8.53125 48.890625 8.058594 C 48.078125 5.929688 43.542969 4.296875 36.617188 3.636719 C 33.652344 3.351562 28.261719 3.445312 25.4375 3.828125 C 21.125 4.410156 17.625 5.492188 16.070312 6.722656 C 12.921875 9.214844 16.25 11.957031 23.992188 13.246094 C 27.347656 13.808594 31.695312 14.003906 35.238281 13.757812 Z M 35.238281 13.757812 "/>
</g>
</svg>
