<?xml version="1.0" encoding="UTF-8"?>
<svg xmlns="http://www.w3.org/2000/svg" xmlns:xlink="http://www.w3.org/1999/xlink" width="64px" height="800px" viewBox="0 0 64 64" version="1.1">
<defs>
<linearGradient id="linear0" gradientUnits="userSpaceOnUse" x1="-134.514" y1="-206.113" x2="-134.455" y2="-206.235" gradientTransform="matrix(495.272,0,0,-307.53,66637.896,-63373.408)">
<stop offset="0" style="stop-color:rgb(54.117647%,62.352941%,87.843137%);stop-opacity:1;"/>
<stop offset="0.588" style="stop-color:rgb(44.313725%,50.980392%,72.156863%);stop-opacity:1;"/>
<stop offset="1" style="stop-color:rgb(34.117647%,39.215686%,56.470588%);stop-opacity:1;"/>
</linearGradient>
</defs>
<g id="surface1">
<path style=" stroke:none;fill-rule:nonzero;fill:rgb(80%,80%,80%);fill-opacity:1;" d="M 28.972656 40.761719 C 29.128906 42.847656 29.101562 44.945312 28.878906 47.027344 C 28.859375 47.625 28.527344 48.164062 28.003906 48.445312 C 26.339844 49.679688 20.769531 49.976562 20.074219 47.355469 C 19.820312 47.34375 20.023438 46.496094 19.78125 46.527344 C 18.792969 46.445312 17.902344 45.902344 17.378906 45.058594 C 17.390625 42.191406 17.707031 31.84375 12.578125 34.628906 C 11.464844 35.25 10.628906 36.273438 10.242188 37.488281 C 9.898438 38.546875 9.734375 39.660156 9.765625 40.773438 C 9.722656 42.203125 10.078125 43.765625 10.132812 45.476562 C 10.152344 46.242188 10.273438 46.4375 9.703125 47.089844 C 8.785156 48.140625 7.183594 47.253906 6.316406 46.101562 C 5.953125 45.519531 5.75 44.847656 5.734375 44.160156 C 5.046875 36.671875 5.726562 29.117188 7.734375 21.867188 C 8.46875 19.40625 8.726562 19.050781 11.0625 18.496094 C 13.71875 17.914062 16.453125 17.75 19.160156 18.019531 C 21.265625 17.335938 26.253906 13.628906 28.402344 16.570312 C 35 15.105469 41.910156 16.367188 47.5625 20.070312 C 50.394531 20.285156 53.238281 20.335938 56.078125 20.222656 C 56.480469 19.96875 56.949219 19.695312 57.355469 19.457031 C 57.65625 19.253906 57.992188 19.113281 58.347656 19.039062 C 58.804688 18.96875 59.40625 18.949219 59.546875 19.519531 C 59.667969 20.105469 59.707031 20.707031 59.667969 21.304688 C 59.640625 22.046875 59.109375 22.675781 58.382812 22.824219 C 57.582031 22.695312 56.808594 22.445312 56.085938 22.082031 C 53.484375 22.152344 51.886719 22.011719 49.285156 22.082031 C 49.703125 22.53125 49.6875 22.824219 49.988281 23.417969 C 51.507812 27.414062 50.925781 31.902344 48.441406 35.375 C 48.257812 38.355469 48.480469 41.367188 48.503906 44.355469 C 48.511719 45.386719 48.585938 46.367188 47.613281 47.050781 C 45.878906 48.089844 43.761719 48.265625 41.878906 47.53125 C 41.375 47.238281 40.921875 46.863281 40.542969 46.417969 C 40.210938 46.453125 39.878906 46.460938 39.542969 46.4375 C 38.976562 46.28125 38.488281 45.921875 38.164062 45.429688 C 37.980469 45.089844 37.824219 44.738281 37.695312 44.378906 C 37.695312 42.976562 37.644531 42.429688 37.644531 41.03125 C 34.761719 41.546875 31.800781 41.464844 28.953125 40.789062 Z M 28.972656 40.761719 "/>
<path style=" stroke:none;fill-rule:nonzero;fill:rgb(80%,80%,80%);fill-opacity:1;" d="M 24.191406 49.679688 C 23.363281 49.691406 22.542969 49.566406 21.757812 49.308594 C 20.871094 49.074219 20.152344 48.433594 19.8125 47.582031 C 19.667969 47.398438 19.59375 47.171875 19.613281 46.9375 L 19.613281 46.847656 C 18.582031 46.695312 17.671875 46.101562 17.113281 45.226562 L 17.0625 45.148438 L 17.0625 44.628906 C 17.082031 42.265625 17.128906 35.980469 14.996094 34.703125 C 14.265625 34.347656 13.398438 34.425781 12.738281 34.902344 C 11.6875 35.488281 10.902344 36.453125 10.539062 37.601562 C 10.210938 38.628906 10.054688 39.703125 10.085938 40.777344 C 10.085938 41.582031 10.140625 42.382812 10.253906 43.179688 C 10.339844 43.910156 10.429688 44.671875 10.453125 45.46875 C 10.453125 45.585938 10.453125 45.6875 10.46875 45.78125 C 10.558594 46.34375 10.363281 46.914062 9.949219 47.300781 C 9.617188 47.6875 9.125 47.902344 8.617188 47.875 C 7.582031 47.734375 6.652344 47.15625 6.066406 46.292969 C 5.65625 45.664062 5.433594 44.933594 5.421875 44.1875 C 4.722656 36.65625 5.40625 29.058594 7.4375 21.773438 C 8.1875 19.265625 8.519531 18.773438 10.996094 18.1875 C 13.664062 17.601562 16.410156 17.433594 19.132812 17.695312 C 19.730469 17.460938 20.316406 17.195312 20.882812 16.894531 C 23.347656 15.660156 26.703125 13.988281 28.542969 16.226562 C 35.136719 14.804688 42.027344 16.078125 47.679688 19.761719 C 50.445312 19.96875 53.226562 20.019531 56 19.90625 C 56.398438 19.660156 56.824219 19.402344 57.210938 19.179688 L 57.324219 19.117188 C 57.625 18.917969 57.960938 18.78125 58.3125 18.714844 C 59.199219 18.578125 59.710938 18.820312 59.867188 19.4375 C 59.996094 20.054688 60.039062 20.6875 59.996094 21.316406 C 59.953125 22.214844 59.300781 22.96875 58.414062 23.132812 L 58.363281 23.132812 L 58.3125 23.121094 C 58.140625 23.074219 57.96875 23.035156 57.792969 22.996094 C 57.167969 22.890625 56.5625 22.6875 56 22.398438 C 54.734375 22.433594 53.691406 22.414062 52.683594 22.398438 C 51.816406 22.386719 50.925781 22.371094 49.894531 22.386719 C 49.957031 22.511719 50.003906 22.632812 50.054688 22.757812 C 50.117188 22.933594 50.195312 23.105469 50.277344 23.269531 C 51.855469 27.351562 51.28125 31.949219 48.757812 35.523438 C 48.644531 37.453125 48.703125 39.4375 48.757812 41.355469 C 48.785156 42.335938 48.816406 43.355469 48.820312 44.355469 L 48.820312 44.527344 C 49.019531 45.574219 48.625 46.644531 47.796875 47.3125 C 45.976562 48.421875 43.738281 48.609375 41.757812 47.824219 C 41.324219 47.613281 40.941406 47.316406 40.628906 46.953125 C 40.558594 46.878906 40.488281 46.808594 40.414062 46.738281 C 40.316406 46.738281 40.214844 46.753906 40.125 46.761719 C 39.90625 46.796875 39.683594 46.792969 39.464844 46.75 C 38.824219 46.570312 38.265625 46.167969 37.898438 45.609375 C 37.757812 45.382812 37.644531 45.140625 37.558594 44.886719 C 37.511719 44.765625 37.464844 44.640625 37.40625 44.511719 L 37.378906 44.449219 L 37.378906 44.378906 C 37.378906 43.6875 37.367188 43.191406 37.351562 42.714844 C 37.34375 42.316406 37.332031 41.914062 37.328125 41.398438 C 34.671875 41.835938 31.960938 41.773438 29.328125 41.214844 C 29.449219 43.167969 29.40625 45.128906 29.199219 47.074219 C 29.167969 47.753906 28.789062 48.367188 28.199219 48.703125 C 26.980469 49.394531 25.589844 49.734375 24.191406 49.679688 Z M 20.253906 47.042969 L 20.324219 47.042969 L 20.382812 47.269531 C 20.628906 47.988281 21.226562 48.53125 21.964844 48.707031 C 23.90625 49.296875 26.003906 49.113281 27.808594 48.1875 C 28.261719 47.957031 28.550781 47.496094 28.558594 46.988281 C 28.769531 45.011719 28.804688 43.019531 28.671875 41.035156 L 28.5 40.988281 L 29.199219 39.601562 L 29.28125 40.527344 C 32.023438 41.132812 34.855469 41.191406 37.621094 40.703125 L 37.980469 40.652344 L 37.980469 41.019531 C 37.980469 41.710938 37.992188 42.207031 38.007812 42.683594 C 38.023438 43.15625 38.03125 43.628906 38.035156 44.296875 C 38.085938 44.414062 38.128906 44.527344 38.171875 44.636719 C 38.242188 44.847656 38.335938 45.046875 38.449219 45.238281 C 38.730469 45.667969 39.15625 45.980469 39.648438 46.117188 C 39.792969 46.140625 39.9375 46.140625 40.082031 46.117188 C 40.242188 46.097656 40.40625 46.089844 40.570312 46.09375 L 40.691406 46.09375 L 40.777344 46.175781 C 40.886719 46.273438 40.992188 46.382812 41.101562 46.492188 C 41.359375 46.792969 41.671875 47.042969 42.023438 47.226562 C 43.800781 47.921875 45.804688 47.753906 47.445312 46.777344 C 48.222656 46.230469 48.210938 45.476562 48.199219 44.523438 L 48.199219 44.351562 C 48.199219 43.351562 48.164062 42.351562 48.132812 41.367188 C 48.074219 39.390625 48.015625 37.351562 48.132812 35.347656 L 48.132812 35.214844 L 48.234375 35.128906 C 50.628906 31.761719 51.183594 27.417969 49.710938 23.558594 C 49.617188 23.371094 49.53125 23.179688 49.460938 22.984375 C 49.378906 22.726562 49.242188 22.488281 49.058594 22.292969 L 48.578125 21.773438 L 49.285156 21.753906 C 50.59375 21.71875 51.660156 21.734375 52.695312 21.753906 C 53.730469 21.773438 54.785156 21.789062 56.078125 21.753906 L 56.171875 21.753906 L 56.253906 21.804688 C 56.773438 22.085938 57.335938 22.28125 57.921875 22.382812 C 58.085938 22.421875 58.246094 22.457031 58.40625 22.496094 C 58.945312 22.328125 59.320312 21.839844 59.347656 21.277344 C 59.386719 20.710938 59.347656 20.140625 59.230469 19.585938 C 59.203125 19.460938 59.148438 19.230469 58.398438 19.351562 C 58.125 19.402344 57.863281 19.511719 57.632812 19.664062 L 57.519531 19.730469 C 57.121094 19.957031 56.660156 20.234375 56.257812 20.488281 L 56.183594 20.535156 L 56.097656 20.535156 C 53.246094 20.652344 50.386719 20.597656 47.542969 20.378906 L 47.457031 20.378906 L 47.386719 20.332031 C 41.804688 16.671875 34.980469 15.425781 28.464844 16.882812 L 28.265625 16.917969 L 28.148438 16.757812 C 26.652344 14.71875 23.480469 16.304688 21.160156 17.460938 C 20.546875 17.789062 19.914062 18.078125 19.261719 18.320312 L 19.199219 18.34375 L 19.132812 18.34375 C 16.457031 18.078125 13.757812 18.238281 11.132812 18.8125 C 8.890625 19.34375 8.730469 19.613281 8.039062 21.960938 C 6.027344 29.171875 5.347656 36.6875 6.039062 44.140625 C 6.042969 44.769531 6.222656 45.378906 6.554688 45.910156 C 7.03125 46.621094 7.777344 47.101562 8.621094 47.242188 C 8.9375 47.261719 9.242188 47.128906 9.445312 46.882812 C 9.753906 46.621094 9.890625 46.214844 9.808594 45.820312 C 9.808594 45.722656 9.796875 45.621094 9.796875 45.492188 C 9.773438 44.71875 9.6875 43.976562 9.597656 43.257812 C 9.480469 42.433594 9.421875 41.601562 9.421875 40.769531 C 9.394531 39.617188 9.5625 38.464844 9.925781 37.371094 C 10.339844 36.085938 11.226562 35.007812 12.402344 34.351562 C 13.253906 33.753906 14.367188 33.675781 15.292969 34.152344 C 17.738281 35.617188 17.691406 41.933594 17.671875 44.628906 L 17.671875 44.960938 C 18.136719 45.664062 18.890625 46.121094 19.726562 46.207031 C 19.835938 46.195312 19.945312 46.226562 20.027344 46.296875 C 20.175781 46.460938 20.246094 46.675781 20.226562 46.894531 C 20.246094 46.941406 20.246094 47 20.253906 47.042969 Z M 19.820312 46.84375 Z M 19.820312 46.84375 "/>
<path style=" stroke:none;fill-rule:nonzero;fill:rgb(21.568627%,20.392157%,20.784314%);fill-opacity:1;" d="M 27.78125 39.960938 C 27.941406 42.050781 27.910156 44.144531 27.691406 46.226562 C 27.671875 46.824219 27.335938 47.363281 26.8125 47.644531 C 25.148438 48.878906 19.578125 49.175781 18.886719 46.554688 C 18.628906 46.542969 18.835938 45.695312 18.589844 45.726562 C 17.601562 45.648438 16.710938 45.101562 16.191406 44.257812 C 16.199219 41.390625 16.515625 31.042969 11.390625 33.828125 C 10.277344 34.449219 9.441406 35.472656 9.054688 36.6875 C 8.707031 37.75 8.546875 38.859375 8.574219 39.972656 C 8.535156 41.402344 8.890625 42.964844 8.941406 44.679688 C 8.960938 45.445312 9.085938 45.636719 8.515625 46.289062 C 7.597656 47.339844 5.992188 46.453125 5.128906 45.300781 C 4.761719 44.71875 4.5625 44.050781 4.546875 43.363281 C 3.855469 35.871094 4.535156 28.316406 6.546875 21.066406 C 7.28125 18.605469 7.535156 18.25 9.871094 17.699219 C 12.53125 17.113281 15.261719 16.953125 17.972656 17.21875 C 20.074219 16.535156 25.0625 12.828125 27.214844 15.769531 C 33.8125 14.304688 40.71875 15.566406 46.371094 19.269531 C 49.207031 19.484375 52.050781 19.535156 54.890625 19.425781 C 55.289062 19.167969 55.757812 18.894531 56.164062 18.65625 C 56.464844 18.457031 56.800781 18.3125 57.15625 18.238281 C 57.617188 18.167969 58.214844 18.148438 58.355469 18.71875 C 58.476562 19.308594 58.519531 19.90625 58.476562 20.507812 C 58.449219 21.246094 57.917969 21.875 57.191406 22.027344 C 56.394531 21.894531 55.621094 21.644531 54.894531 21.28125 C 52.296875 21.355469 50.695312 21.210938 48.097656 21.28125 C 48.515625 21.730469 48.496094 22.027344 48.800781 22.617188 C 50.316406 26.613281 49.734375 31.101562 47.25 34.574219 C 47.066406 37.554688 47.289062 40.566406 47.3125 43.554688 C 47.320312 44.585938 47.394531 45.566406 46.425781 46.25 C 44.691406 47.289062 42.574219 47.464844 40.691406 46.730469 C 40.183594 46.4375 39.730469 46.0625 39.355469 45.617188 C 39.023438 45.65625 38.6875 45.660156 38.355469 45.636719 C 37.789062 45.480469 37.296875 45.121094 36.976562 44.628906 C 36.792969 44.292969 36.632812 43.941406 36.507812 43.578125 C 36.507812 42.179688 36.453125 41.628906 36.453125 40.230469 C 33.570312 40.75 30.613281 40.664062 27.761719 39.988281 Z M 27.78125 39.960938 "/>
<path style=" stroke:none;fill-rule:nonzero;fill:rgb(21.568627%,20.392157%,20.784314%);fill-opacity:1;" d="M 23 48.878906 C 22.175781 48.890625 21.351562 48.765625 20.566406 48.511719 C 19.683594 48.273438 18.960938 47.632812 18.621094 46.78125 C 18.476562 46.601562 18.40625 46.371094 18.421875 46.136719 L 18.421875 46.046875 C 17.394531 45.894531 16.480469 45.300781 15.921875 44.425781 L 15.875 44.347656 L 15.875 43.828125 C 15.890625 41.464844 15.9375 35.183594 13.804688 33.902344 C 13.074219 33.546875 12.207031 33.625 11.550781 34.105469 C 10.5 34.691406 9.710938 35.65625 9.351562 36.800781 C 9.019531 37.828125 8.867188 38.902344 8.894531 39.976562 C 8.894531 40.78125 8.949219 41.582031 9.0625 42.378906 C 9.148438 43.113281 9.238281 43.871094 9.265625 44.671875 C 9.265625 44.789062 9.265625 44.890625 9.277344 44.980469 C 9.371094 45.542969 9.175781 46.113281 8.757812 46.503906 C 8.429688 46.890625 7.9375 47.105469 7.429688 47.078125 C 6.390625 46.933594 5.464844 46.359375 4.875 45.492188 C 4.464844 44.867188 4.242188 44.136719 4.230469 43.386719 C 3.535156 35.855469 4.21875 28.261719 6.246094 20.972656 C 6.996094 18.464844 7.328125 17.972656 9.804688 17.386719 C 12.476562 16.800781 15.222656 16.632812 17.941406 16.894531 C 18.539062 16.660156 19.125 16.394531 19.691406 16.09375 C 22.15625 14.863281 25.511719 13.1875 27.355469 15.425781 C 33.949219 14.003906 40.839844 15.277344 46.488281 18.964844 C 49.253906 19.171875 52.027344 19.222656 54.800781 19.113281 C 55.191406 18.871094 55.625 18.609375 56.011719 18.386719 L 56.125 18.320312 C 56.425781 18.125 56.757812 17.988281 57.113281 17.921875 C 58 17.785156 58.511719 18.027344 58.664062 18.644531 C 58.792969 19.261719 58.839844 19.894531 58.796875 20.523438 C 58.753906 21.421875 58.097656 22.175781 57.214844 22.339844 L 57.160156 22.339844 L 57.113281 22.324219 C 56.941406 22.28125 56.769531 22.242188 56.59375 22.203125 C 55.972656 22.09375 55.375 21.890625 54.8125 21.601562 C 53.546875 21.632812 52.503906 21.617188 51.496094 21.601562 C 50.628906 21.589844 49.738281 21.570312 48.707031 21.589844 C 48.773438 21.714844 48.816406 21.835938 48.867188 21.960938 C 48.933594 22.132812 49.007812 22.304688 49.09375 22.472656 C 50.667969 26.554688 50.097656 31.152344 47.570312 34.722656 C 47.457031 36.65625 47.515625 38.636719 47.570312 40.554688 C 47.597656 41.539062 47.628906 42.554688 47.636719 43.554688 L 47.636719 43.726562 C 47.832031 44.773438 47.441406 45.84375 46.613281 46.511719 C 44.789062 47.621094 42.554688 47.8125 40.570312 47.027344 C 40.140625 46.8125 39.757812 46.515625 39.445312 46.152344 C 39.375 46.078125 39.304688 46.007812 39.230469 45.941406 C 39.132812 45.941406 39.03125 45.953125 38.941406 45.960938 C 38.722656 45.996094 38.5 45.992188 38.28125 45.949219 C 37.640625 45.773438 37.082031 45.367188 36.714844 44.808594 C 36.574219 44.582031 36.460938 44.339844 36.375 44.085938 C 36.328125 43.964844 36.28125 43.839844 36.222656 43.710938 L 36.195312 43.648438 L 36.195312 43.578125 C 36.195312 42.886719 36.183594 42.390625 36.167969 41.914062 C 36.15625 41.515625 36.144531 41.117188 36.144531 40.597656 C 33.488281 41.035156 30.777344 40.972656 28.144531 40.414062 C 28.257812 42.367188 28.210938 44.324219 28 46.269531 C 27.96875 46.949219 27.589844 47.5625 27 47.894531 C 25.785156 48.589844 24.398438 48.929688 23 48.878906 Z M 19.0625 46.242188 L 19.132812 46.242188 L 19.195312 46.46875 C 19.441406 47.1875 20.039062 47.730469 20.777344 47.90625 C 22.71875 48.5 24.8125 48.3125 26.621094 47.386719 C 27.074219 47.15625 27.359375 46.695312 27.371094 46.1875 C 27.578125 44.210938 27.617188 42.21875 27.480469 40.234375 L 27.308594 40.1875 L 28 38.808594 L 28.082031 39.734375 C 30.824219 40.34375 33.65625 40.402344 36.421875 39.910156 L 36.78125 39.863281 L 36.78125 40.226562 C 36.78125 40.921875 36.792969 41.414062 36.808594 41.890625 C 36.820312 42.367188 36.832031 42.839844 36.835938 43.507812 C 36.882812 43.625 36.929688 43.738281 36.972656 43.851562 C 37.042969 44.058594 37.136719 44.261719 37.25 44.449219 C 37.53125 44.878906 37.957031 45.191406 38.449219 45.328125 C 38.59375 45.351562 38.738281 45.351562 38.882812 45.328125 C 39.042969 45.3125 39.207031 45.300781 39.371094 45.304688 L 39.488281 45.304688 L 39.578125 45.386719 C 39.6875 45.484375 39.792969 45.585938 39.902344 45.707031 C 40.160156 46.007812 40.472656 46.253906 40.820312 46.4375 C 42.601562 47.132812 44.605469 46.96875 46.246094 45.988281 C 47.023438 45.441406 47.011719 44.691406 47 43.734375 L 47 43.5625 C 47 42.5625 46.964844 41.5625 46.933594 40.574219 C 46.875 38.601562 46.816406 36.5625 46.933594 34.558594 L 46.933594 34.429688 L 47.035156 34.339844 C 49.429688 30.972656 49.984375 26.632812 48.511719 22.769531 C 48.417969 22.582031 48.332031 22.390625 48.261719 22.195312 C 48.179688 21.9375 48.042969 21.703125 47.859375 21.503906 L 47.378906 20.984375 L 48.085938 20.964844 C 49.390625 20.929688 50.460938 20.949219 51.496094 20.964844 C 52.53125 20.984375 53.585938 21.003906 54.878906 20.964844 L 54.972656 20.964844 L 55.050781 21.015625 C 55.574219 21.296875 56.136719 21.492188 56.722656 21.59375 C 56.886719 21.632812 57.046875 21.667969 57.207031 21.707031 C 57.746094 21.539062 58.121094 21.054688 58.148438 20.488281 C 58.1875 19.921875 58.148438 19.351562 58.03125 18.796875 C 58.003906 18.675781 57.949219 18.445312 57.199219 18.5625 C 56.925781 18.617188 56.664062 18.722656 56.433594 18.878906 L 56.316406 18.941406 C 55.917969 19.171875 55.457031 19.449219 55.054688 19.699219 L 55 19.738281 L 54.914062 19.738281 C 52.0625 19.855469 49.203125 19.804688 46.359375 19.585938 L 46.273438 19.585938 L 46.199219 19.535156 C 40.617188 15.875 33.792969 14.628906 27.277344 16.085938 L 27.078125 16.121094 L 26.960938 15.960938 C 25.464844 13.921875 22.292969 15.507812 19.972656 16.664062 C 19.359375 16.992188 18.726562 17.28125 18.074219 17.523438 L 18.011719 17.542969 L 17.945312 17.542969 C 15.269531 17.28125 12.570312 17.4375 9.945312 18.015625 C 7.703125 18.542969 7.542969 18.816406 6.851562 21.164062 C 4.839844 28.375 4.160156 35.890625 4.851562 43.34375 C 4.855469 43.96875 5.03125 44.582031 5.367188 45.113281 C 5.84375 45.820312 6.589844 46.304688 7.433594 46.445312 C 7.75 46.464844 8.054688 46.332031 8.257812 46.085938 C 8.5625 45.824219 8.703125 45.417969 8.621094 45.023438 C 8.621094 44.925781 8.609375 44.820312 8.609375 44.695312 C 8.585938 43.921875 8.496094 43.179688 8.40625 42.457031 C 8.289062 41.632812 8.234375 40.804688 8.234375 39.972656 C 8.203125 38.816406 8.375 37.667969 8.734375 36.570312 C 9.152344 35.289062 10.039062 34.210938 11.214844 33.554688 C 12.066406 32.957031 13.179688 32.878906 14.105469 33.355469 C 16.550781 34.820312 16.503906 41.132812 16.484375 43.828125 L 16.484375 44.164062 C 16.953125 44.867188 17.714844 45.324219 18.558594 45.398438 C 18.667969 45.386719 18.777344 45.421875 18.859375 45.488281 C 19.007812 45.652344 19.078125 45.871094 19.058594 46.089844 C 19.054688 46.140625 19.058594 46.199219 19.0625 46.242188 Z M 18.628906 46.042969 Z M 18.628906 46.042969 "/>
<path style=" stroke:none;fill-rule:nonzero;fill:rgb(41.176471%,47.058824%,67.058824%);fill-opacity:1;" d="M 37.144531 39.890625 C 37.785156 39.832031 38.417969 39.703125 39.035156 39.515625 C 39.34375 41.328125 39.4375 43.175781 39.308594 45.011719 C 38.355469 45.070312 37.457031 44.546875 37.042969 43.6875 C 36.9375 42.421875 36.972656 41.148438 37.144531 39.890625 Z M 37.144531 39.890625 "/>
<path style=" stroke:none;fill-rule:nonzero;fill:rgb(21.568627%,20.392157%,20.784314%);fill-opacity:1;" d="M 39.242188 45.332031 C 38.191406 45.367188 37.21875 44.78125 36.761719 43.835938 L 36.730469 43.777344 L 36.730469 43.714844 C 36.625 42.425781 36.660156 41.128906 36.835938 39.851562 L 36.867188 39.601562 L 37.113281 39.574219 C 37.734375 39.511719 38.347656 39.390625 38.945312 39.210938 L 39.273438 39.105469 L 39.351562 39.441406 C 39.652344 41.078125 39.75 42.746094 39.644531 44.40625 L 39.628906 45.324219 L 39.320312 45.324219 Z M 37.355469 43.59375 C 37.675781 44.21875 38.296875 44.632812 38.996094 44.683594 L 38.996094 44.394531 C 39.085938 42.898438 39.015625 41.398438 38.796875 39.917969 C 38.347656 40.035156 37.894531 40.121094 37.433594 40.179688 C 37.292969 41.3125 37.265625 42.460938 37.355469 43.601562 Z M 37.355469 43.59375 "/>
<path style=" stroke:none;fill-rule:nonzero;fill:url(#linear0);" d="M 8.105469 45.367188 C 7.652344 42.417969 7.195312 37.214844 9.304688 34.734375 C 9.472656 34.511719 9.652344 34.296875 9.84375 34.09375 C 13.171875 30.960938 16.066406 33.65625 16.855469 37.125 C 17.019531 39.316406 17.054688 41.515625 16.957031 43.714844 C 17.359375 44.496094 18.179688 44.964844 19.058594 44.914062 C 19.363281 45.546875 19.28125 46.015625 19.628906 46.433594 C 20.980469 47.949219 23.113281 48.5 25.03125 47.820312 C 25.65625 47.554688 26.265625 47.253906 26.855469 46.914062 C 27.332031 44.230469 27.265625 41.480469 26.65625 38.824219 C 26.65625 38.457031 26.535156 38.210938 26.535156 37.84375 C 26.761719 37.875 26.976562 37.972656 27.15625 38.121094 C 26.757812 39.589844 32.269531 40.597656 38.699219 38.824219 C 38.769531 38.566406 38.644531 38.253906 38.800781 38.160156 C 39 38.035156 39.25 38.003906 39.472656 38.078125 C 39.503906 38.546875 39.515625 39.007812 39.546875 39.476562 C 40.042969 39.523438 40.546875 39.53125 41.046875 39.496094 C 40.71875 39.792969 40.285156 39.945312 39.847656 39.925781 C 39.957031 39.925781 39.785156 40.140625 39.886719 40.160156 C 40.183594 40.230469 40.742188 40.121094 40.976562 40.222656 C 40.539062 40.476562 40.050781 40.335938 39.753906 40.621094 C 39.824219 42.183594 39.867188 43.855469 39.929688 45.421875 C 41.917969 46.933594 44.703125 46.808594 46.550781 45.125 C 46.742188 41.992188 46.675781 38.847656 46.351562 35.726562 C 46.117188 35.695312 45.878906 35.652344 45.644531 35.625 C 49.300781 30.707031 50.003906 25.679688 46.941406 21.136719 C 46.910156 20.9375 46.777344 20.738281 46.742188 20.539062 C 49.40625 20.4375 52.140625 20.710938 54.8125 20.609375 C 55.535156 20.882812 56.28125 21.089844 57.039062 21.230469 C 57.824219 20.957031 57.964844 18.773438 57.191406 19.019531 C 56.417969 19.261719 55.992188 19.753906 55.160156 20.058594 C 52.101562 20.058594 48.703125 19.9375 45.640625 19.9375 C 40.566406 15.898438 33.777344 14.726562 27.640625 16.835938 C 29.519531 20.878906 29.707031 25.503906 28.160156 29.6875 C 27.988281 30.261719 25.347656 31.933594 27.507812 30.105469 C 29.691406 28.25 28.324219 15.355469 25.640625 15.335938 C 22.480469 15.367188 19.449219 16.578125 17.140625 18.734375 C 16.722656 18.285156 16.753906 18.46875 16.941406 17.835938 C 14.65625 17.640625 12.355469 17.84375 10.140625 18.4375 C 8.964844 18.472656 7.933594 19.226562 7.539062 20.335938 C 5.523438 27.546875 4.710938 35.042969 5.140625 42.523438 C 5.246094 43.417969 5.480469 44.292969 5.84375 45.121094 C 7.042969 46.4375 7.691406 46.058594 8.089844 45.367188 Z M 8.105469 45.367188 "/>
<path style=" stroke:none;fill-rule:nonzero;fill:rgb(21.568627%,20.392157%,20.784314%);fill-opacity:1;" d="M 12.890625 20.84375 C 12.21875 20.570312 11.488281 20.46875 10.765625 20.546875 C 10.628906 20.53125 10.5 20.613281 10.460938 20.746094 C 10.40625 20.839844 10.390625 20.949219 10.421875 21.054688 C 10.480469 21.226562 10.492188 21.21875 10.644531 21.253906 C 10.84375 21.285156 11.050781 21.265625 11.242188 21.203125 C 11.707031 20.957031 12.253906 20.933594 12.734375 21.128906 C 12.960938 21.121094 12.980469 21.027344 12.910156 20.851562 Z M 12.890625 20.84375 "/>
<path style=" stroke:none;fill-rule:nonzero;fill:rgb(21.568627%,20.392157%,20.784314%);fill-opacity:1;" d="M 10.8125 21.582031 C 10.734375 21.582031 10.652344 21.574219 10.574219 21.558594 L 10.550781 21.558594 C 10.332031 21.535156 10.15625 21.371094 10.117188 21.15625 C 10.058594 20.96875 10.082031 20.761719 10.179688 20.589844 C 10.273438 20.363281 10.5 20.21875 10.742188 20.230469 C 11.492188 20.152344 12.246094 20.253906 12.945312 20.527344 L 13.109375 20.527344 L 13.191406 20.726562 C 13.285156 20.882812 13.28125 21.074219 13.1875 21.226562 C 13.089844 21.378906 12.914062 21.464844 12.734375 21.445312 L 12.6875 21.445312 L 12.632812 21.429688 C 12.234375 21.257812 11.78125 21.273438 11.394531 21.472656 L 11.359375 21.496094 L 11.316406 21.507812 C 11.152344 21.554688 10.984375 21.578125 10.8125 21.582031 Z M 10.722656 20.9375 C 10.859375 20.949219 10.996094 20.9375 11.125 20.894531 L 11.230469 20.84375 C 11.09375 20.84375 10.949219 20.84375 10.804688 20.863281 L 10.753906 20.863281 L 10.742188 20.886719 C 10.734375 20.902344 10.726562 20.917969 10.722656 20.9375 Z M 10.722656 20.9375 "/>
<path style=" stroke:none;fill-rule:nonzero;fill:rgb(21.568627%,20.392157%,20.784314%);fill-opacity:1;" d="M 11.242188 23.375 C 11.429688 22.984375 11.828125 22.742188 12.257812 22.753906 C 12.296875 22.496094 12.257812 22.351562 11.929688 22.351562 C 11.464844 22.589844 11.066406 22.9375 10.773438 23.371094 C 10.605469 23.75 10.550781 24.164062 10.621094 24.570312 C 10.65625 24.851562 10.800781 25.101562 11.019531 25.277344 C 11.484375 25.566406 12.082031 25.542969 12.523438 25.214844 C 13.238281 24.796875 13.957031 23.601562 12.699219 23.152344 C 12.1875 23.050781 11.660156 23.164062 11.234375 23.457031 C 11.214844 23.46875 11.203125 23.429688 11.234375 23.375 Z M 11.242188 23.375 "/>
<path style=" stroke:none;fill-rule:nonzero;fill:rgb(21.568627%,20.392157%,20.784314%);fill-opacity:1;" d="M 11.632812 25.8125 C 11.335938 25.816406 11.046875 25.71875 10.816406 25.527344 C 10.53125 25.300781 10.347656 24.972656 10.304688 24.613281 C 10.222656 24.136719 10.292969 23.644531 10.503906 23.210938 C 10.824219 22.730469 11.261719 22.339844 11.773438 22.074219 L 11.84375 22.035156 L 11.921875 22.035156 C 12.117188 22.015625 12.316406 22.085938 12.457031 22.222656 C 12.582031 22.390625 12.621094 22.601562 12.574219 22.800781 C 13.128906 22.886719 13.578125 23.300781 13.703125 23.851562 C 13.679688 24.539062 13.292969 25.164062 12.6875 25.496094 C 12.367188 25.691406 12.003906 25.800781 11.632812 25.8125 Z M 10.984375 23.679688 C 10.910156 23.960938 10.894531 24.253906 10.9375 24.542969 C 10.964844 24.742188 11.070312 24.917969 11.226562 25.039062 C 11.613281 25.363281 12.238281 25.019531 12.363281 24.945312 C 12.753906 24.738281 13.015625 24.351562 13.066406 23.910156 C 13.046875 23.710938 12.886719 23.566406 12.59375 23.460938 C 12.175781 23.398438 11.75 23.496094 11.40625 23.734375 L 11.378906 23.75 L 11.164062 23.859375 L 10.988281 23.679688 Z M 10.984375 23.679688 "/>
<path style=" stroke:none;fill-rule:nonzero;fill:rgb(99.607843%,99.607843%,99.607843%);fill-opacity:1;" d="M 11.800781 24.761719 C 11.804688 24.835938 11.816406 24.90625 11.84375 24.976562 C 11.851562 25.007812 11.867188 25.039062 11.882812 25.066406 C 11.765625 25.148438 11.617188 25.160156 11.484375 25.109375 C 11.042969 24.90625 11.074219 24.289062 11.300781 23.953125 C 11.539062 23.601562 11.933594 23.382812 12.359375 23.367188 C 12.59375 23.488281 12.664062 23.605469 12.542969 23.632812 C 12.472656 23.648438 12.40625 23.671875 12.34375 23.707031 C 12.246094 23.75 12.171875 23.832031 12.140625 23.933594 C 12.242188 23.960938 12.296875 23.933594 12.386719 23.972656 L 12.386719 24.289062 C 12.289062 24.242188 12.175781 24.226562 12.070312 24.25 C 11.871094 24.3125 11.792969 24.597656 11.792969 24.773438 Z M 11.800781 24.761719 "/>
<path style=" stroke:none;fill-rule:nonzero;fill:rgb(21.568627%,20.392157%,20.784314%);fill-opacity:1;" d="M 12.644531 32.917969 C 13.789062 32.671875 14.789062 31.980469 15.417969 30.992188 C 16.050781 30.007812 16.257812 28.808594 16 27.667969 C 15.640625 27.660156 15.292969 27.566406 14.976562 27.390625 C 14.957031 27.261719 14.949219 27.125 14.925781 26.992188 C 15.753906 27.390625 16.925781 27.511719 16.773438 26.246094 C 16.886719 26.214844 17.058594 26.207031 17.175781 26.175781 C 17.132812 27.0625 16.972656 27.144531 16.429688 27.523438 C 16.746094 29.488281 16.074219 31.484375 14.628906 32.855469 C 14.585938 33.132812 14.609375 33.414062 14.699219 33.683594 C 14.167969 33.128906 13.410156 32.851562 12.648438 32.9375 Z M 12.644531 32.917969 "/>
<path style=" stroke:none;fill-rule:nonzero;fill:rgb(21.568627%,20.392157%,20.784314%);fill-opacity:1;" d="M 15.265625 34.78125 L 14.464844 33.898438 C 13.992188 33.414062 13.324219 33.175781 12.652344 33.257812 L 12.328125 33.257812 L 12.328125 32.699219 L 12.554688 32.609375 C 14.695312 32.167969 16.097656 30.105469 15.722656 27.953125 C 15.398438 27.929688 15.082031 27.828125 14.804688 27.660156 L 14.683594 27.582031 L 14.660156 27.441406 C 14.648438 27.371094 14.640625 27.300781 14.632812 27.230469 C 14.625 27.160156 14.617188 27.105469 14.609375 27.042969 L 14.515625 26.441406 L 15.0625 26.707031 C 15.433594 26.945312 15.890625 27.003906 16.3125 26.867188 C 16.441406 26.777344 16.488281 26.578125 16.453125 26.285156 L 16.425781 26.011719 L 16.6875 25.941406 C 16.765625 25.921875 16.847656 25.90625 16.925781 25.894531 C 16.980469 25.890625 17.035156 25.878906 17.085938 25.867188 L 17.511719 25.753906 L 17.488281 26.191406 C 17.449219 27.101562 17.246094 27.332031 16.769531 27.675781 C 17.019531 29.644531 16.335938 31.621094 14.917969 33.011719 C 14.917969 33.183594 14.941406 33.351562 14.988281 33.515625 Z M 13.863281 32.765625 C 14.007812 32.8125 14.148438 32.871094 14.285156 32.945312 C 14.289062 32.878906 14.304688 32.8125 14.324219 32.746094 L 14.347656 32.683594 L 14.394531 32.632812 C 14.566406 32.449219 14.722656 32.265625 14.867188 32.082031 C 14.5625 32.347656 14.222656 32.578125 13.863281 32.765625 Z M 13.863281 32.765625 "/>
<path style=" stroke:none;fill-rule:nonzero;fill:rgb(50.196078%,57.647059%,81.568627%);fill-opacity:1;" d="M 44.3125 46.425781 C 44.265625 45.671875 44.171875 45.011719 44.148438 44.253906 C 44.101562 42.523438 42.785156 42.144531 42.710938 43.875 C 42.671875 44.785156 42.710938 45.640625 42.710938 46.496094 C 43.246094 46.570312 43.789062 46.546875 44.3125 46.425781 Z M 44.3125 46.425781 "/>
<path style=" stroke:none;fill-rule:nonzero;fill:rgb(21.568627%,20.392157%,20.784314%);fill-opacity:1;" d="M 43.476562 46.640625 C 43.277344 46.640625 43.089844 46.628906 42.898438 46.617188 L 42.601562 46.601562 L 42.601562 46.5 C 42.601562 46.214844 42.601562 45.933594 42.601562 45.648438 C 42.601562 45.078125 42.582031 44.484375 42.601562 43.875 C 42.636719 42.96875 43 42.648438 43.320312 42.648438 C 43.746094 42.648438 44.214844 43.214844 44.246094 44.246094 C 44.261719 44.710938 44.300781 45.132812 44.339844 45.578125 C 44.367188 45.851562 44.390625 46.125 44.410156 46.414062 L 44.410156 46.5 L 44.328125 46.523438 C 44.050781 46.601562 43.765625 46.640625 43.476562 46.640625 Z M 42.820312 46.398438 L 42.914062 46.398438 C 43.34375 46.449219 43.78125 46.429688 44.203125 46.34375 C 44.183594 46.085938 44.160156 45.839844 44.136719 45.597656 C 44.097656 45.148438 44.058594 44.722656 44.042969 44.253906 C 44.019531 43.390625 43.644531 42.855469 43.328125 42.855469 C 43.113281 42.855469 42.851562 43.121094 42.820312 43.878906 C 42.792969 44.476562 42.800781 45.078125 42.820312 45.640625 C 42.816406 45.894531 42.820312 46.144531 42.820312 46.398438 Z M 42.820312 46.398438 "/>
<path style=" stroke:none;fill-rule:nonzero;fill:rgb(50.196078%,57.647059%,81.568627%);fill-opacity:1;" d="M 42.734375 46.515625 C 42.589844 45.644531 42.535156 44.761719 42.574219 43.878906 C 42.6875 42.28125 41.175781 40.59375 41.070312 43.5625 C 41.035156 44.433594 41.070312 45.300781 41.175781 46.164062 C 41.683594 46.320312 42.207031 46.4375 42.734375 46.515625 Z M 42.734375 46.515625 "/>
<path style=" stroke:none;fill-rule:nonzero;fill:rgb(21.568627%,20.392157%,20.784314%);fill-opacity:1;" d="M 42.859375 46.640625 L 42.71875 46.621094 C 42.183594 46.546875 41.65625 46.429688 41.140625 46.269531 L 41.074219 46.246094 L 41.074219 46.183594 C 40.96875 45.3125 40.9375 44.4375 40.972656 43.5625 C 41.007812 42.605469 41.175781 42.035156 41.5 41.871094 C 41.652344 41.796875 41.832031 41.8125 41.96875 41.917969 C 42.5 42.429688 42.765625 43.15625 42.691406 43.886719 C 42.644531 44.660156 42.683594 45.433594 42.800781 46.199219 Z M 41.269531 46.089844 C 41.710938 46.21875 42.160156 46.320312 42.613281 46.386719 L 42.59375 46.222656 C 42.46875 45.445312 42.425781 44.660156 42.464844 43.875 C 42.535156 43.21875 42.304688 42.566406 41.839844 42.097656 C 41.769531 42.035156 41.671875 42.023438 41.589844 42.058594 C 41.476562 42.117188 41.21875 42.378906 41.175781 43.566406 C 41.140625 44.410156 41.171875 45.25 41.269531 46.089844 Z M 41.269531 46.089844 "/>
<path style=" stroke:none;fill-rule:nonzero;fill:rgb(50.196078%,57.647059%,81.568627%);fill-opacity:1;" d="M 41.175781 46.300781 L 40.960938 42.898438 C 40.808594 40.363281 39.789062 40.65625 39.707031 42.746094 C 39.664062 43.734375 39.746094 44.277344 39.652344 45.265625 C 40.132812 45.59375 40.632812 46.234375 41.175781 46.285156 Z M 41.175781 46.300781 "/>
<path style=" stroke:none;fill-rule:nonzero;fill:rgb(21.568627%,20.392157%,20.784314%);fill-opacity:1;" d="M 41.164062 46.398438 C 40.738281 46.296875 40.351562 46.066406 40.054688 45.738281 C 39.910156 45.605469 39.757812 45.476562 39.597656 45.363281 L 39.542969 45.324219 L 39.542969 45.265625 C 39.585938 44.785156 39.601562 44.304688 39.585938 43.824219 C 39.585938 43.5 39.585938 43.164062 39.585938 42.753906 C 39.628906 41.6875 39.910156 40.992188 40.304688 40.988281 C 40.703125 40.988281 40.980469 41.703125 41.050781 42.902344 L 41.265625 46.300781 L 41.15625 46.300781 Z M 39.765625 45.222656 C 39.910156 45.324219 40.054688 45.453125 40.195312 45.578125 C 40.441406 45.832031 40.734375 46.03125 41.058594 46.164062 L 40.859375 42.914062 C 40.785156 41.65625 40.496094 41.203125 40.324219 41.203125 C 40.144531 41.203125 39.859375 41.703125 39.816406 42.761719 C 39.800781 43.160156 39.804688 43.503906 39.816406 43.824219 C 39.824219 44.289062 39.808594 44.753906 39.765625 45.21875 Z M 39.765625 45.222656 "/>
<path style=" stroke:none;fill-rule:nonzero;fill:rgb(50.196078%,57.647059%,81.568627%);fill-opacity:1;" d="M 23.730469 48.054688 C 23.757812 47.261719 23.714844 46.464844 23.609375 45.675781 C 23.179688 43.835938 22.640625 43.609375 22.007812 44.96875 L 22.007812 48.023438 C 22.578125 48.101562 23.160156 48.109375 23.730469 48.042969 Z M 23.730469 48.054688 "/>
<path style=" stroke:none;fill-rule:nonzero;fill:rgb(21.568627%,20.392157%,20.784314%);fill-opacity:1;" d="M 23.085938 48.199219 C 22.753906 48.199219 22.421875 48.171875 22.09375 48.140625 L 21.894531 48.121094 L 21.894531 44.921875 C 22.199219 44.265625 22.492188 43.957031 22.789062 43.988281 C 23.152344 44.027344 23.441406 44.554688 23.695312 45.648438 L 23.714844 45.820312 C 23.816406 46.5625 23.851562 47.3125 23.820312 48.058594 L 23.71875 48.058594 L 23.730469 48.148438 C 23.519531 48.183594 23.300781 48.199219 23.085938 48.199219 Z M 22.113281 47.929688 C 22.613281 47.992188 23.121094 48 23.625 47.953125 C 23.644531 47.25 23.609375 46.546875 23.519531 45.847656 L 23.5 45.6875 C 23.207031 44.433594 22.925781 44.21875 22.78125 44.203125 C 22.671875 44.203125 22.445312 44.28125 22.113281 44.992188 Z M 22.113281 47.929688 "/>
<path style=" stroke:none;fill-rule:nonzero;fill:rgb(50.196078%,57.647059%,81.568627%);fill-opacity:1;" d="M 20.601562 47.550781 C 20.609375 46.378906 20.621094 45.605469 20.621094 44.433594 C 21.046875 42.707031 21.484375 42.882812 21.914062 44.953125 C 21.925781 46.0625 21.933594 46.789062 21.933594 47.898438 C 21.464844 47.878906 21.007812 47.761719 20.589844 47.550781 Z M 20.601562 47.550781 "/>
<path style=" stroke:none;fill-rule:nonzero;fill:rgb(21.568627%,20.392157%,20.784314%);fill-opacity:1;" d="M 22.035156 48.019531 L 21.855469 47.996094 C 21.390625 47.976562 20.941406 47.855469 20.527344 47.644531 L 20.179688 47.445312 L 20.484375 47.445312 L 20.484375 46.84375 C 20.484375 46.023438 20.5 45.347656 20.5 44.421875 L 20.5 44.394531 C 20.714844 43.527344 20.929688 43.140625 21.191406 43.140625 C 21.390625 43.140625 21.671875 43.351562 21.988281 44.921875 L 21.988281 45.613281 C 21.988281 46.382812 22.003906 47.011719 22.003906 47.890625 Z M 20.699219 47.492188 C 21.050781 47.660156 21.433594 47.757812 21.820312 47.777344 C 21.820312 46.964844 21.820312 46.355469 21.808594 45.621094 L 21.808594 44.953125 C 21.492188 43.445312 21.253906 43.363281 21.207031 43.363281 C 21.160156 43.363281 20.988281 43.386719 20.726562 44.445312 C 20.726562 45.363281 20.726562 46.042969 20.710938 46.855469 Z M 20.699219 47.492188 "/>
<path style=" stroke:none;fill-rule:nonzero;fill:rgb(50.196078%,57.647059%,81.568627%);fill-opacity:1;" d="M 19 45.246094 C 19.0625 44.265625 19.265625 43.277344 19.324219 42.296875 C 18.925781 40.355469 18.488281 40.011719 18.03125 41.277344 C 18.011719 42.53125 18.003906 43.796875 17.980469 45.054688 C 18.285156 45.246094 18.648438 45.320312 19.003906 45.253906 Z M 19 45.246094 "/>
<path style=" stroke:none;fill-rule:nonzero;fill:rgb(21.568627%,20.392157%,20.784314%);fill-opacity:1;" d="M 18.746094 45.398438 C 18.5 45.386719 18.261719 45.320312 18.050781 45.199219 L 17.882812 45.125 L 17.882812 45.054688 C 17.894531 44.425781 17.902344 43.796875 17.90625 43.164062 C 17.914062 42.535156 17.921875 41.90625 17.933594 41.277344 L 17.933594 41.242188 C 18.132812 40.667969 18.347656 40.410156 18.585938 40.425781 C 18.824219 40.441406 19.105469 40.667969 19.433594 42.277344 L 19.433594 42.304688 C 19.402344 42.800781 19.335938 43.304688 19.269531 43.789062 C 19.203125 44.269531 19.136719 44.769531 19.109375 45.253906 L 19.109375 45.34375 L 19.023438 45.363281 C 18.933594 45.382812 18.839844 45.398438 18.746094 45.398438 Z M 18.097656 45 L 18.136719 45.019531 C 18.371094 45.15625 18.640625 45.214844 18.90625 45.183594 C 18.941406 44.710938 19.003906 44.234375 19.066406 43.773438 C 19.132812 43.308594 19.199219 42.800781 19.230469 42.316406 C 18.914062 40.792969 18.652344 40.65625 18.578125 40.648438 C 18.539062 40.648438 18.378906 40.683594 18.148438 41.308594 C 18.136719 41.929688 18.128906 42.554688 18.121094 43.179688 C 18.117188 43.804688 18.105469 44.40625 18.097656 44.984375 Z M 18.097656 45 "/>
<path style=" stroke:none;fill-rule:nonzero;fill:rgb(50.196078%,57.647059%,81.568627%);fill-opacity:1;" d="M 38.042969 44.9375 C 38.125 43.894531 38.011719 43.027344 38.042969 42.007812 C 38.070312 40.769531 39.292969 41.128906 39.347656 42.261719 C 39.398438 43.394531 39.457031 43.976562 39.519531 45.109375 C 39.023438 45.195312 38.515625 45.132812 38.054688 44.9375 Z M 38.042969 44.9375 "/>
<path style=" stroke:none;fill-rule:nonzero;fill:rgb(21.568627%,20.392157%,20.784314%);fill-opacity:1;" d="M 38.925781 45.234375 C 38.613281 45.246094 38.304688 45.179688 38.023438 45.035156 L 37.9375 45.035156 L 37.9375 44.921875 C 37.972656 44.367188 37.976562 43.808594 37.949219 43.25 C 37.9375 42.851562 37.921875 42.4375 37.9375 41.996094 C 37.953125 41.355469 38.269531 41.121094 38.5625 41.121094 C 38.960938 41.121094 39.414062 41.550781 39.445312 42.253906 C 39.476562 42.828125 39.507812 43.253906 39.535156 43.695312 C 39.5625 44.136719 39.589844 44.539062 39.621094 45.09375 L 39.621094 45.203125 L 39.308594 45.214844 C 39.183594 45.230469 39.054688 45.234375 38.925781 45.234375 Z M 38.152344 44.867188 C 38.519531 45.019531 38.917969 45.070312 39.308594 45.011719 L 39.40625 45.011719 C 39.378906 44.507812 39.351562 44.109375 39.324219 43.714844 C 39.296875 43.28125 39.269531 42.851562 39.238281 42.269531 C 39.207031 41.691406 38.871094 41.339844 38.566406 41.339844 C 38.316406 41.339844 38.164062 41.59375 38.148438 42.011719 C 38.132812 42.429688 38.148438 42.855469 38.160156 43.253906 C 38.1875 43.789062 38.183594 44.328125 38.152344 44.867188 Z M 38.152344 44.867188 "/>
<path style=" stroke:none;fill-rule:nonzero;fill:rgb(72.54902%,77.254902%,91.764706%);fill-opacity:1;" d="M 37.976562 44.972656 C 37.949219 44.210938 37.957031 43.292969 37.929688 42.527344 C 38 41.476562 37.277344 39.929688 36.992188 41.652344 C 36.902344 42.289062 36.847656 42.933594 36.828125 43.578125 C 37.160156 44.085938 37.542969 44.554688 37.976562 44.972656 Z M 37.976562 44.972656 "/>
<path style=" stroke:none;fill-rule:nonzero;fill:rgb(21.568627%,20.392157%,20.784314%);fill-opacity:1;" d="M 38.09375 45.191406 L 37.914062 45.0625 C 37.5625 44.75 37.253906 44.394531 37 44 C 36.902344 43.867188 36.816406 43.742188 36.742188 43.652344 L 36.71875 43.621094 L 36.71875 43.578125 C 36.730469 43.378906 36.742188 43.179688 36.75 43.019531 C 36.765625 42.558594 36.808594 42.097656 36.882812 41.644531 C 36.917969 41.421875 37.03125 40.738281 37.386719 40.785156 C 37.789062 40.832031 38.074219 41.898438 38.03125 42.542969 C 38.046875 42.914062 38.050781 43.34375 38.054688 43.757812 C 38.0625 44.171875 38.066406 44.597656 38.082031 44.976562 Z M 36.9375 43.546875 C 37.007812 43.636719 37.085938 43.746094 37.175781 43.871094 C 37.382812 44.175781 37.613281 44.464844 37.863281 44.734375 C 37.863281 44.421875 37.851562 44.082031 37.847656 43.753906 C 37.847656 43.34375 37.835938 42.914062 37.820312 42.535156 C 37.871094 41.789062 37.539062 41.007812 37.367188 40.988281 C 37.328125 40.976562 37.191406 41.097656 37.09375 41.671875 C 37.023438 42.117188 36.980469 42.570312 36.964844 43.023438 C 36.957031 43.183594 36.949219 43.351562 36.9375 43.542969 Z M 36.9375 43.546875 "/>
<path style=" stroke:none;fill-rule:nonzero;fill:rgb(21.568627%,20.392157%,20.784314%);fill-opacity:1;" d="M 28.886719 30.917969 C 29.40625 28.4375 29.914062 25.957031 30.4375 23.46875 C 30.519531 22.886719 30.671875 22.367188 31.28125 22.3125 L 32.027344 22.3125 C 32.472656 22.3125 32.730469 22.578125 32.769531 23.113281 L 32.617188 24.214844 C 32.636719 24.664062 32.914062 24.921875 33.464844 24.960938 C 34.207031 24.992188 34.964844 25.035156 35.707031 25.0625 C 36.828125 25.136719 37.585938 25.617188 37.507812 27.015625 C 37.273438 28.246094 37.039062 29.484375 36.804688 30.707031 C 36.777344 31.292969 36.402344 31.800781 35.855469 32.003906 C 35.519531 31.984375 35.140625 32.023438 34.804688 32.003906 C 34.222656 32.035156 33.886719 31.820312 34.101562 31.054688 C 34.316406 30.085938 34.582031 28.871094 34.804688 27.898438 C 34.886719 26.746094 34.460938 26.6875 34.007812 26.605469 C 33.617188 26.550781 33.242188 26.605469 32.855469 26.550781 C 32.28125 26.632812 32.066406 27.183594 31.90625 27.796875 C 31.660156 28.828125 31.40625 29.859375 31.160156 30.898438 C 31.050781 31.460938 30.929688 31.828125 30.511719 32.003906 L 29.265625 32.003906 C 28.796875 31.898438 28.664062 31.53125 28.867188 30.898438 Z M 28.886719 30.917969 "/>
<path style=" stroke:none;fill-rule:nonzero;fill:rgb(99.607843%,99.607843%,99.607843%);fill-opacity:1;" d="M 35.019531 32.21875 C 34.945312 32.21875 34.871094 32.21875 34.800781 32.21875 C 34.496094 32.269531 34.183594 32.167969 33.96875 31.945312 C 33.789062 31.664062 33.761719 31.308594 33.890625 31 L 34.015625 30.445312 C 34.199219 29.601562 34.414062 28.65625 34.589844 27.871094 C 34.652344 26.941406 34.402344 26.894531 33.988281 26.820312 C 33.617188 26.769531 33.261719 26.820312 32.859375 26.773438 C 32.460938 26.84375 32.277344 27.242188 32.113281 27.855469 C 32.007812 28.308594 31.894531 28.773438 31.78125 29.234375 C 31.644531 29.804688 31.507812 30.378906 31.371094 30.953125 C 31.234375 31.53125 31.125 31.980469 30.59375 32.203125 L 30.550781 32.21875 L 29.21875 32.21875 C 28.992188 32.183594 28.789062 32.046875 28.667969 31.851562 C 28.527344 31.53125 28.527344 31.167969 28.667969 30.851562 L 28.734375 30.648438 C 29 29.359375 29.265625 28.066406 29.535156 26.773438 C 29.761719 25.664062 29.992188 24.558594 30.222656 23.449219 C 30.28125 23.050781 30.398438 22.199219 31.261719 22.128906 L 32.023438 22.128906 C 32.351562 22.128906 32.914062 22.257812 32.980469 23.128906 L 32.980469 23.148438 L 32.824219 24.253906 C 32.839844 24.480469 32.933594 24.738281 33.472656 24.777344 L 34.597656 24.828125 L 35.710938 24.878906 C 36.289062 24.824219 36.855469 25.042969 37.25 25.46875 C 37.640625 25.894531 37.8125 26.480469 37.710938 27.050781 L 37.710938 27.078125 C 37.476562 28.316406 37.238281 29.550781 37.007812 30.777344 C 36.964844 31.433594 36.539062 32.003906 35.921875 32.230469 L 35.878906 32.246094 L 35.835938 32.246094 C 35.679688 32.246094 35.507812 32.246094 35.328125 32.246094 C 35.226562 32.214844 35.121094 32.21875 35.019531 32.21875 Z M 34.800781 31.789062 L 34.8125 31.789062 C 34.972656 31.789062 35.140625 31.789062 35.320312 31.789062 C 35.496094 31.789062 35.65625 31.789062 35.820312 31.789062 C 36.273438 31.601562 36.574219 31.164062 36.589844 30.675781 C 36.824219 29.449219 37.058594 28.21875 37.292969 26.984375 C 37.355469 25.863281 36.875 25.351562 35.691406 25.277344 L 34.578125 25.226562 L 33.453125 25.175781 C 32.574219 25.109375 32.417969 24.550781 32.402344 24.226562 L 32.402344 24.199219 L 32.554688 23.101562 C 32.511719 22.589844 32.246094 22.523438 32.027344 22.523438 L 31.28125 22.523438 C 30.914062 22.554688 30.742188 22.808594 30.644531 23.492188 C 30.410156 24.617188 30.183594 25.722656 29.953125 26.828125 C 29.667969 28.207031 29.378906 29.582031 29.09375 30.957031 L 29.011719 31.34375 L 28.988281 31.320312 C 28.972656 31.421875 28.988281 31.527344 29.035156 31.621094 C 29.089844 31.707031 29.183594 31.765625 29.285156 31.785156 L 30.460938 31.785156 C 30.746094 31.648438 30.84375 31.382812 30.949219 30.851562 C 31.085938 30.269531 31.222656 29.695312 31.363281 29.121094 C 31.472656 28.660156 31.585938 28.199219 31.695312 27.738281 C 31.816406 27.285156 32.039062 26.445312 32.820312 26.339844 L 32.878906 26.339844 C 33.242188 26.386719 33.621094 26.339844 34.03125 26.390625 L 34.058594 26.390625 C 34.628906 26.496094 35.097656 26.683594 35.011719 27.910156 L 35.011719 27.945312 C 34.828125 28.730469 34.609375 29.679688 34.433594 30.527344 L 34.304688 31.097656 C 34.226562 31.382812 34.226562 31.578125 34.304688 31.675781 C 34.386719 31.769531 34.621094 31.796875 34.792969 31.789062 Z M 34.800781 31.789062 "/>
<path style=" stroke:none;fill-rule:nonzero;fill:rgb(21.568627%,20.392157%,20.784314%);fill-opacity:1;" d="M 19.246094 33.789062 C 19.757812 31.144531 20.277344 28.5 20.789062 25.867188 C 20.777344 25.625 20.867188 25.386719 21.039062 25.214844 C 21.210938 25.042969 21.445312 24.953125 21.6875 24.96875 L 26.382812 24.96875 C 27.296875 24.941406 28.148438 25.421875 28.597656 26.214844 C 28.914062 26.785156 29.042969 27.433594 28.976562 28.082031 C 28.875 29.191406 28.382812 30.230469 27.589844 31.011719 C 26.9375 31.5625 26.136719 31.910156 25.292969 32.011719 C 24.492188 32.03125 23.691406 32.042969 22.890625 32.0625 C 22.433594 32.023438 21.972656 32.144531 21.863281 32.515625 C 21.71875 33.015625 21.617188 33.515625 21.472656 34.003906 C 21.371094 34.226562 21.179688 34.394531 20.945312 34.464844 C 20.484375 34.472656 20.015625 34.472656 19.554688 34.484375 C 19.0625 34.492188 19.164062 34.199219 19.246094 33.789062 Z M 22.523438 29.257812 C 22.65625 28.5625 22.820312 27.777344 22.941406 27.164062 C 23.074219 26.789062 23.441406 26.542969 23.839844 26.5625 C 24.324219 26.53125 24.808594 26.59375 25.269531 26.746094 C 25.675781 26.914062 25.996094 27.242188 26.140625 27.65625 C 26.289062 28.070312 26.25 28.527344 26.035156 28.910156 C 25.675781 29.585938 25.0625 30.089844 24.332031 30.3125 C 24 30.398438 23.65625 30.433594 23.3125 30.414062 C 22.433594 30.320312 22.363281 30.089844 22.511719 29.25 Z M 22.523438 29.257812 "/>
<path style=" stroke:none;fill-rule:nonzero;fill:rgb(99.607843%,99.607843%,99.607843%);fill-opacity:1;" d="M 19.53125 34.695312 C 19.359375 34.714844 19.1875 34.652344 19.066406 34.527344 C 18.914062 34.34375 18.96875 34.097656 19.023438 33.839844 L 19.039062 33.746094 C 19.320312 32.292969 19.605469 30.835938 19.890625 29.378906 C 20.121094 28.203125 20.347656 27.03125 20.574219 25.855469 C 20.558594 25.578125 20.660156 25.304688 20.851562 25.101562 C 21.070312 24.871094 21.378906 24.746094 21.699219 24.757812 L 26.382812 24.757812 C 27.375 24.726562 28.300781 25.25 28.785156 26.117188 C 29.117188 26.722656 29.253906 27.414062 29.183594 28.097656 C 29.078125 29.257812 28.566406 30.34375 27.734375 31.160156 L 27.710938 31.183594 C 27.03125 31.757812 26.195312 32.121094 25.3125 32.226562 C 24.898438 32.238281 24.496094 32.242188 24.097656 32.253906 L 22.898438 32.277344 L 22.875 32.277344 C 22.550781 32.25 22.144531 32.308594 22.074219 32.578125 C 22.003906 32.847656 21.945312 33.066406 21.875 33.3125 C 21.804688 33.558594 21.75 33.8125 21.675781 34.066406 C 21.558594 34.355469 21.320312 34.574219 21.023438 34.664062 L 20.984375 34.683594 L 20.945312 34.683594 L 20.253906 34.691406 L 19.554688 34.703125 Z M 19.398438 34.257812 C 19.449219 34.269531 19.5 34.273438 19.550781 34.269531 L 20.253906 34.261719 L 20.898438 34.261719 C 21.113281 34.164062 21.238281 34.058594 21.273438 33.953125 C 21.34375 33.707031 21.402344 33.460938 21.472656 33.214844 C 21.542969 32.96875 21.597656 32.714844 21.671875 32.464844 C 21.800781 32.035156 22.273438 31.804688 22.914062 31.863281 L 24.101562 31.839844 L 25.300781 31.8125 C 26.097656 31.710938 26.847656 31.382812 27.460938 30.863281 C 28.214844 30.121094 28.683594 29.132812 28.78125 28.078125 C 28.84375 27.472656 28.722656 26.855469 28.425781 26.320312 C 28 25.601562 27.222656 25.171875 26.386719 25.195312 L 21.6875 25.195312 C 21.488281 25.1875 21.296875 25.265625 21.160156 25.40625 C 21.042969 25.527344 20.984375 25.691406 21.003906 25.859375 L 21.003906 25.921875 C 20.773438 27.101562 20.542969 28.289062 20.308594 29.472656 C 20.027344 30.929688 19.742188 32.382812 19.460938 33.84375 L 19.441406 33.9375 C 19.410156 34.042969 19.394531 34.15625 19.398438 34.269531 Z M 23.503906 30.632812 C 23.433594 30.632812 23.363281 30.632812 23.289062 30.632812 C 22.949219 30.640625 22.617188 30.511719 22.375 30.273438 C 22.195312 30.035156 22.210938 29.71875 22.304688 29.21875 L 22.375 28.816406 L 22.390625 28.832031 C 22.460938 28.472656 22.535156 28.105469 22.605469 27.761719 L 22.753906 27.074219 C 22.921875 26.617188 23.371094 26.324219 23.855469 26.355469 C 24.359375 26.320312 24.867188 26.386719 25.347656 26.554688 C 25.773438 26.707031 26.117188 27.03125 26.289062 27.453125 C 26.480469 27.957031 26.460938 28.515625 26.230469 29.003906 L 26.214844 29.03125 C 25.832031 29.75 25.175781 30.285156 24.394531 30.519531 C 24.101562 30.589844 23.800781 30.628906 23.5 30.632812 Z M 22.675781 29.609375 C 22.644531 29.742188 22.660156 29.882812 22.71875 30.007812 C 22.789062 30.101562 22.984375 30.160156 23.335938 30.199219 C 23.65625 30.214844 23.976562 30.179688 24.285156 30.101562 C 24.957031 29.894531 25.519531 29.429688 25.847656 28.808594 C 26.023438 28.433594 26.042969 28 25.898438 27.609375 C 25.765625 27.300781 25.511719 27.0625 25.195312 26.949219 C 24.761719 26.800781 24.304688 26.742188 23.847656 26.777344 C 23.535156 26.753906 23.246094 26.941406 23.148438 27.238281 L 23.027344 27.839844 C 22.929688 28.308594 22.824219 28.824219 22.734375 29.296875 Z M 22.675781 29.609375 "/>
<path style=" stroke:none;fill-rule:nonzero;fill:rgb(21.568627%,20.392157%,20.784314%);fill-opacity:1;" d="M 37.089844 33.789062 C 37.601562 31.144531 38.121094 28.5 38.632812 25.867188 C 38.617188 25.625 38.707031 25.386719 38.878906 25.214844 C 39.050781 25.042969 39.289062 24.953125 39.53125 24.96875 L 44.226562 24.96875 C 45.136719 24.941406 45.988281 25.421875 46.441406 26.214844 C 46.753906 26.785156 46.886719 27.433594 46.816406 28.082031 C 46.71875 29.191406 46.226562 30.230469 45.429688 31.011719 C 44.777344 31.5625 43.980469 31.910156 43.132812 32.011719 C 42.335938 32.03125 41.535156 32.042969 40.734375 32.0625 C 40.273438 32.023438 39.816406 32.144531 39.703125 32.515625 C 39.5625 33.015625 39.460938 33.515625 39.316406 34.003906 C 39.214844 34.226562 39.019531 34.394531 38.785156 34.464844 C 38.324219 34.472656 37.859375 34.472656 37.398438 34.484375 C 36.90625 34.492188 37 34.199219 37.089844 33.789062 Z M 40.367188 29.257812 C 40.496094 28.5625 40.660156 27.777344 40.785156 27.164062 C 40.917969 26.789062 41.28125 26.542969 41.683594 26.5625 C 42.167969 26.53125 42.652344 26.59375 43.113281 26.746094 C 43.519531 26.914062 43.835938 27.242188 43.984375 27.65625 C 44.128906 28.070312 44.089844 28.527344 43.878906 28.910156 C 43.519531 29.585938 42.90625 30.089844 42.175781 30.3125 C 41.839844 30.398438 41.496094 30.433594 41.152344 30.414062 C 40.277344 30.320312 40.203125 30.089844 40.355469 29.25 Z M 40.367188 29.257812 "/>
<path style=" stroke:none;fill-rule:nonzero;fill:rgb(99.607843%,99.607843%,99.607843%);fill-opacity:1;" d="M 37.375 34.695312 C 37.203125 34.714844 37.03125 34.652344 36.910156 34.527344 C 36.757812 34.34375 36.808594 34.097656 36.863281 33.839844 L 36.882812 33.746094 C 37.160156 32.296875 37.445312 30.84375 37.726562 29.394531 C 37.957031 28.214844 38.1875 27.035156 38.417969 25.855469 C 38.402344 25.578125 38.5 25.304688 38.695312 25.101562 C 38.914062 24.871094 39.222656 24.746094 39.539062 24.757812 L 44.226562 24.757812 C 45.21875 24.726562 46.144531 25.25 46.625 26.117188 C 46.957031 26.722656 47.097656 27.414062 47.027344 28.097656 C 46.921875 29.257812 46.410156 30.34375 45.578125 31.160156 L 45.554688 31.183594 C 44.871094 31.757812 44.039062 32.121094 43.152344 32.226562 C 42.742188 32.238281 42.339844 32.242188 41.941406 32.253906 L 40.738281 32.277344 L 40.714844 32.277344 C 40.390625 32.25 39.988281 32.308594 39.914062 32.578125 C 39.84375 32.847656 39.785156 33.066406 39.714844 33.308594 C 39.644531 33.554688 39.59375 33.8125 39.515625 34.0625 C 39.402344 34.351562 39.160156 34.574219 38.863281 34.664062 L 38.824219 34.679688 L 38.785156 34.679688 L 38.097656 34.691406 L 37.398438 34.699219 Z M 37.238281 34.257812 C 37.289062 34.269531 37.339844 34.273438 37.390625 34.269531 L 38.097656 34.261719 L 38.738281 34.261719 C 38.957031 34.164062 39.078125 34.058594 39.113281 33.953125 C 39.183594 33.707031 39.246094 33.460938 39.3125 33.214844 C 39.382812 32.972656 39.4375 32.71875 39.515625 32.464844 C 39.644531 32.039062 40.113281 31.808594 40.757812 31.867188 L 41.945312 31.839844 L 43.144531 31.8125 C 43.941406 31.710938 44.691406 31.382812 45.304688 30.867188 C 46.058594 30.121094 46.523438 29.136719 46.621094 28.082031 C 46.6875 27.472656 46.5625 26.859375 46.265625 26.324219 C 45.84375 25.605469 45.0625 25.171875 44.230469 25.195312 L 39.53125 25.195312 C 39.332031 25.1875 39.140625 25.265625 39.003906 25.410156 C 38.886719 25.53125 38.828125 25.695312 38.84375 25.863281 L 38.84375 25.921875 C 38.613281 27.109375 38.382812 28.300781 38.148438 29.492188 C 37.867188 30.941406 37.585938 32.390625 37.304688 33.84375 L 37.285156 33.9375 C 37.253906 34.046875 37.238281 34.15625 37.242188 34.269531 Z M 41.34375 30.632812 C 41.273438 30.632812 41.203125 30.632812 41.132812 30.632812 C 40.792969 30.640625 40.460938 30.511719 40.214844 30.273438 C 40.039062 30.035156 40.054688 29.71875 40.144531 29.21875 L 40.21875 28.816406 L 40.230469 28.832031 C 40.300781 28.472656 40.378906 28.101562 40.449219 27.753906 L 40.59375 27.070312 C 40.761719 26.613281 41.210938 26.320312 41.699219 26.351562 C 42.203125 26.320312 42.710938 26.386719 43.1875 26.550781 C 43.613281 26.707031 43.957031 27.03125 44.132812 27.449219 C 44.324219 27.953125 44.300781 28.515625 44.070312 29.003906 L 44.058594 29.027344 C 43.671875 29.746094 43.015625 30.28125 42.234375 30.519531 C 41.945312 30.589844 41.644531 30.625 41.34375 30.632812 Z M 40.515625 29.609375 C 40.484375 29.746094 40.5 29.886719 40.558594 30.011719 C 40.628906 30.101562 40.824219 30.160156 41.175781 30.199219 C 41.496094 30.214844 41.816406 30.183594 42.125 30.101562 C 42.796875 29.894531 43.359375 29.433594 43.6875 28.8125 C 43.867188 28.433594 43.882812 28.003906 43.738281 27.613281 C 43.605469 27.304688 43.351562 27.0625 43.035156 26.949219 C 42.601562 26.804688 42.144531 26.746094 41.6875 26.78125 C 41.375 26.753906 41.089844 26.945312 40.988281 27.238281 L 40.867188 27.839844 C 40.769531 28.3125 40.664062 28.828125 40.574219 29.300781 Z M 40.515625 29.609375 "/>
<path style=" stroke:none;fill-rule:nonzero;fill:rgb(92.156863%,93.72549%,100%);fill-opacity:1;" d="M 6.851562 45.8125 C 6.609375 45.582031 6.410156 45.316406 6.25 45.027344 C 6.003906 44.578125 5.882812 44.066406 5.902344 43.554688 C 5.382812 34.691406 5.84375 26.9375 8.667969 20.601562 C 9.015625 19.824219 9.066406 19.589844 9.789062 19.230469 C 11.996094 18.421875 14.363281 18.148438 16.695312 18.433594 C 16.765625 18.230469 16.90625 18.03125 16.847656 17.832031 C 14.734375 17.664062 12.613281 17.832031 10.554688 18.332031 C 9.152344 18.554688 7.789062 18.800781 7.453125 21.027344 C 4.628906 28.503906 4.835938 35.585938 5.128906 42.542969 C 5.125 43.046875 5.203125 43.546875 5.351562 44.023438 C 5.902344 45.777344 6.433594 45.71875 6.851562 45.808594 Z M 6.851562 45.8125 "/>
<path style=" stroke:none;fill-rule:nonzero;fill:rgb(92.156863%,93.72549%,100%);fill-opacity:1;" d="M 17.695312 44.703125 C 17.695312 42.855469 17.542969 41.011719 17.542969 39.15625 C 17.46875 38.097656 17.238281 37.058594 16.863281 36.066406 C 16.453125 35.34375 15.984375 34.660156 15.460938 34.015625 C 17.050781 37.035156 17.546875 40.511719 16.863281 43.855469 C 17.144531 44.140625 17.398438 44.425781 17.695312 44.703125 Z M 17.695312 44.703125 "/>
<path style=" stroke:none;fill-rule:nonzero;fill:rgb(21.568627%,20.392157%,20.784314%);fill-opacity:1;" d="M 17.847656 45.066406 L 17.707031 45.015625 C 17.171875 44.785156 16.714844 44.410156 16.386719 43.929688 L 16.246094 43.757812 L 16.378906 43.757812 C 16.40625 43.09375 16.394531 42.488281 16.378906 41.898438 C 16.367188 41.28125 16.351562 40.640625 16.386719 39.9375 L 16.386719 39.816406 L 16.507812 39.835938 C 17.175781 39.902344 17.730469 40.382812 17.886719 41.035156 L 17.886719 41.066406 C 17.875 41.757812 17.867188 42.367188 17.859375 42.976562 C 17.851562 43.589844 17.84375 44.222656 17.835938 44.917969 Z M 16.585938 43.839844 C 16.859375 44.222656 17.222656 44.535156 17.636719 44.757812 C 17.636719 44.125 17.652344 43.554688 17.660156 42.972656 C 17.660156 42.375 17.679688 41.761719 17.6875 41.078125 C 17.5625 40.554688 17.132812 40.15625 16.601562 40.070312 C 16.570312 40.71875 16.585938 41.316406 16.601562 41.894531 C 16.601562 42.511719 16.621094 43.144531 16.585938 43.839844 Z M 16.585938 43.839844 "/>
<path style=" stroke:none;fill-rule:nonzero;fill:rgb(92.156863%,93.72549%,100%);fill-opacity:1;" d="M 20.503906 47.3125 C 20.085938 47.148438 19.734375 46.851562 19.503906 46.46875 C 19.433594 43.171875 19.371094 39.867188 19.304688 36.570312 L 19.804688 37.070312 C 19.917969 37.765625 19.96875 38.46875 19.960938 39.171875 L 20.113281 39.570312 C 20.109375 42.15625 20.242188 44.742188 20.503906 47.3125 Z M 20.503906 47.3125 "/>
<path style=" stroke:none;fill-rule:nonzero;fill:rgb(21.568627%,20.392157%,20.784314%);fill-opacity:1;" d="M 20.671875 48.046875 L 20.53125 48 C 19.949219 47.796875 19.46875 47.375 19.183594 46.828125 L 19.171875 46.800781 L 19.171875 46.761719 C 19.171875 45.660156 19.191406 44.527344 19.191406 43.414062 L 19.191406 43.386719 L 19.203125 43.363281 C 19.507812 42.8125 19.765625 42.457031 20.050781 42.515625 C 20.273438 42.558594 20.523438 42.816406 20.691406 44.382812 C 20.691406 45.550781 20.671875 46.738281 20.671875 47.898438 Z M 19.382812 46.746094 C 19.621094 47.191406 20 47.542969 20.457031 47.746094 C 20.457031 46.632812 20.46875 45.496094 20.476562 44.398438 C 20.320312 42.941406 20.097656 42.738281 20.011719 42.722656 C 19.921875 42.703125 19.75 42.816406 19.410156 43.441406 C 19.398438 44.539062 19.398438 45.660156 19.382812 46.746094 Z M 19.296875 46.765625 Z M 19.296875 46.765625 "/>
<path style=" stroke:none;fill-rule:nonzero;fill:rgb(21.568627%,20.392157%,20.784314%);fill-opacity:1;" d="M 17 36.113281 C 17.007812 35.945312 16.980469 35.773438 16.929688 35.613281 C 17.011719 35.632812 17.09375 35.644531 17.171875 35.664062 L 18.464844 36.71875 C 18.644531 36.640625 18.789062 36.5 18.867188 36.316406 C 19.03125 36.316406 19.191406 36.390625 19.292969 36.519531 C 19.3125 37.355469 19.253906 38.183594 19.273438 39.019531 C 19.410156 39.132812 19.496094 39.292969 19.519531 39.46875 C 20.054688 39.488281 20.589844 39.539062 21.117188 39.621094 C 21.148438 39.753906 21.191406 39.835938 21.21875 39.96875 C 20.621094 39.902344 20.019531 39.902344 19.421875 39.96875 L 19.421875 40.347656 C 19.890625 40.324219 20.359375 40.359375 20.820312 40.449219 C 20.839844 40.5625 20.851562 40.613281 20.871094 40.726562 C 20.371094 40.667969 19.867188 40.671875 19.371094 40.746094 C 19.433594 42.808594 19.453125 44.851562 19.371094 46.921875 C 19.207031 46.535156 18.894531 46.15625 18.71875 45.769531 C 19.03125 43.128906 19.070312 40.464844 18.84375 37.816406 C 18.367188 37.113281 17.738281 36.53125 17 36.113281 Z M 17 36.113281 "/>
<path style=" stroke:none;fill-rule:nonzero;fill:rgb(21.568627%,20.392157%,20.784314%);fill-opacity:1;" d="M 19.089844 47.046875 C 19 46.855469 18.894531 46.675781 18.777344 46.5 C 18.652344 46.308594 18.535156 46.109375 18.4375 45.898438 L 18.398438 45.816406 L 18.410156 45.726562 C 18.714844 43.140625 18.757812 40.527344 18.535156 37.929688 C 18.085938 37.300781 17.503906 36.777344 16.832031 36.394531 L 16.652344 36.277344 L 16.691406 36.066406 C 16.691406 35.988281 16.679688 35.914062 16.65625 35.839844 C 16.640625 35.785156 16.628906 35.734375 16.621094 35.683594 L 16.527344 35.191406 L 17.011719 35.3125 L 17.117188 35.335938 C 17.160156 35.335938 17.210938 35.351562 17.257812 35.363281 L 17.324219 35.382812 L 18.492188 36.328125 C 18.527344 36.296875 18.554688 36.257812 18.570312 36.214844 L 18.648438 36.015625 L 18.871094 36.015625 C 19.140625 36.015625 19.398438 36.140625 19.558594 36.359375 L 19.613281 36.4375 L 19.613281 36.53125 C 19.625 36.957031 19.613281 37.386719 19.605469 37.796875 C 19.605469 38.164062 19.585938 38.542969 19.59375 38.914062 C 19.660156 38.992188 19.71875 39.082031 19.765625 39.175781 C 20.097656 39.191406 20.425781 39.234375 20.742188 39.273438 L 21.15625 39.324219 L 21.378906 39.351562 L 21.429688 39.570312 C 21.441406 39.617188 21.457031 39.667969 21.472656 39.714844 C 21.492188 39.777344 21.515625 39.839844 21.53125 39.914062 L 21.628906 40.339844 L 21.195312 40.304688 L 21.117188 40.304688 L 21.265625 41.105469 L 20.84375 41.058594 C 20.464844 41.015625 20.082031 41.011719 19.703125 41.042969 C 19.769531 43.320312 19.765625 45.207031 19.703125 46.949219 Z M 19.058594 45.71875 L 19.097656 45.792969 C 19.097656 45.648438 19.097656 45.503906 19.097656 45.355469 C 19.089844 45.476562 19.074219 45.597656 19.058594 45.71875 Z M 18.628906 37 C 18.757812 37.136719 18.875 37.277344 18.980469 37.429688 C 18.980469 37.199219 18.980469 36.96875 18.980469 36.738281 C 18.878906 36.84375 18.761719 36.933594 18.628906 37 Z M 18.628906 37 "/>
<path style=" stroke:none;fill-rule:nonzero;fill:rgb(92.156863%,93.72549%,100%);fill-opacity:1;" d="M 18.242188 17.929688 C 19.164062 17.808594 20.054688 17.5 20.855469 17.03125 C 22.445312 16.140625 24.222656 15.625 26.042969 15.53125 C 25.289062 15.191406 24.441406 15.121094 23.640625 15.328125 C 21.679688 15.804688 19.839844 16.691406 18.242188 17.929688 Z M 18.242188 17.929688 "/>
<path style=" stroke:none;fill-rule:nonzero;fill:rgb(92.156863%,93.72549%,100%);fill-opacity:1;" d="M 28.226562 16.820312 C 32.609375 15.558594 37.28125 15.769531 41.527344 17.421875 C 37.351562 15.585938 32.664062 15.269531 28.28125 16.527344 C 28.277344 16.730469 28.226562 16.628906 28.226562 16.820312 Z M 28.226562 16.820312 "/>
</g>
</svg>
