<?xml version="1.0" encoding="UTF-8"?>
<svg xmlns="http://www.w3.org/2000/svg" xmlns:xlink="http://www.w3.org/1999/xlink" width="64px" height="64px" viewBox="0 0 64 64" version="1.1">
<g id="surface1">
<path style=" stroke:none;fill-rule:nonzero;fill:rgb(93.333333%,26.27451%,13.72549%);fill-opacity:1;" d="M 7.8125 60.484375 C 6.714844 60.484375 6.398438 59.847656 6.398438 58.890625 C 6.398438 58.574219 6.4375 58.214844 6.488281 57.835938 C 6.726562 56.183594 7.3125 55.238281 8.726562 55.238281 C 9.683594 55.238281 10.148438 55.664062 10.148438 56.441406 L 10.148438 56.820312 L 11.097656 56.820312 C 11.109375 56.820312 11.109375 56.472656 11.109375 56.390625 C 11.109375 55.257812 10.421875 54.179688 8.726562 54.179688 C 6.425781 54.179688 5.480469 55.429688 5.132812 57.878906 C 5.082031 58.210938 5.050781 58.515625 5.050781 58.84375 C 5.050781 60.289062 5.621094 61.601562 7.652344 61.601562 C 9.195312 61.601562 10.113281 60.847656 10.652344 59.921875 L 9.742188 59.3125 C 9.15625 60.238281 8.519531 60.484375 7.8125 60.484375 Z M 14.035156 55.921875 C 12.195312 55.921875 11.398438 56.871094 11.128906 58.75 C 11.097656 58.972656 11.078125 59.199219 11.078125 59.410156 C 11.078125 60.625 11.644531 61.589844 13.21875 61.589844 C 15.0625 61.589844 15.867188 60.605469 16.136719 58.75 C 16.167969 58.511719 16.1875 58.292969 16.1875 58.074219 C 16.1875 56.839844 15.601562 55.921875 14.035156 55.921875 Z M 14.804688 58.753906 C 14.605469 60.117188 14.175781 60.535156 13.367188 60.535156 C 12.722656 60.535156 12.402344 60.265625 12.402344 59.460938 C 12.402344 59.261719 12.425781 59.019531 12.464844 58.753906 C 12.664062 57.398438 13.0625 56.980469 13.878906 56.980469 C 14.535156 56.980469 14.863281 57.25 14.863281 58.066406 C 14.863281 58.265625 14.84375 58.492188 14.804688 58.753906 Z M 20.820312 54.28125 L 20.511719 56.109375 C 20.492188 56.265625 20.503906 56.214844 20.5625 56.363281 C 20.273438 56.144531 19.753906 56 19.40625 56 C 17.753906 56 16.828125 56.746094 16.527344 58.839844 C 16.488281 59.089844 16.480469 59.296875 16.480469 59.507812 C 16.480469 61.03125 17.375 61.601562 18.578125 61.601562 C 19.089844 61.601562 19.585938 61.609375 19.972656 61.28125 L 20.074219 61.902344 L 21.03125 61.902344 L 22.144531 54.28125 Z M 19.875 60.246094 C 19.425781 60.515625 18.988281 60.574219 18.71875 60.574219 C 17.992188 60.574219 17.792969 60.195312 17.792969 59.589844 C 17.792969 59.359375 17.824219 59.089844 17.863281 58.800781 C 18.09375 57.21875 18.601562 56.9375 19.257812 56.9375 C 19.6875 56.9375 20.015625 57.007812 20.324219 57.179688 Z M 25.054688 55.921875 C 23.230469 55.921875 22.375 56.789062 22.085938 58.75 C 22.054688 58.992188 22.035156 59.21875 22.035156 59.4375 C 22.035156 60.785156 22.722656 61.589844 24.234375 61.589844 C 25.410156 61.589844 26.289062 61.101562 26.757812 60.207031 L 25.75 59.796875 C 25.460938 60.234375 25.074219 60.535156 24.386719 60.535156 C 23.648438 60.535156 23.351562 60.335938 23.351562 59.679688 C 23.351562 59.550781 23.359375 59.359375 23.378906 59.359375 L 26.976562 59.359375 C 27.027344 58.851562 27.085938 58.492188 27.085938 58.195312 C 27.085938 57.199219 26.707031 55.921875 25.054688 55.921875 Z M 25.742188 58.34375 L 23.550781 58.34375 C 23.769531 57.835938 24.136719 57.050781 24.894531 57.050781 C 25.480469 57.050781 25.769531 57.394531 25.769531 57.980469 C 25.769531 58.082031 25.761719 58.34375 25.742188 58.34375 Z M 30.917969 55.804688 L 31.039062 54.789062 L 28.226562 54.789062 L 28.109375 55.804688 L 28.847656 55.804688 L 28.050781 60.886719 L 27.3125 60.886719 L 27.191406 61.902344 L 30 61.902344 L 30.121094 60.886719 L 29.382812 60.886719 L 30.179688 55.804688 Z M 36.625 57.328125 L 36.984375 56.3125 L 36.019531 56.3125 L 35.320312 56.457031 C 34.933594 56.207031 34.40625 56.019531 33.90625 56.019531 C 32.484375 56.019531 31.269531 56.707031 31.269531 58.273438 C 31.269531 58.710938 31.425781 59.066406 31.617188 59.304688 C 31.316406 59.464844 31.058594 59.730469 31.058594 60.089844 C 31.058594 60.25 31.117188 60.410156 31.238281 60.5625 C 30.640625 60.917969 30.273438 61.515625 30.273438 62.210938 C 30.273438 63.558594 31.675781 63.84375 32.753906 63.84375 C 34.105469 63.84375 35.71875 63.535156 35.71875 61.8125 C 35.71875 61.222656 35.351562 60.765625 34.285156 60.566406 L 32.363281 60.207031 C 32.144531 60.167969 32.09375 60.097656 32.09375 59.996094 C 32.09375 59.847656 32.1875 59.769531 32.335938 59.769531 L 32.464844 59.789062 C 32.722656 59.847656 33.023438 59.878906 33.332031 59.878906 C 34.714844 59.878906 35.949219 59.28125 35.949219 57.726562 C 35.949219 57.507812 35.910156 57.359375 35.8125 57.121094 C 35.980469 57.199219 36.199219 57.328125 36.289062 57.328125 Z M 33.886719 61.449219 C 34.265625 61.519531 34.394531 61.660156 34.394531 61.910156 C 34.394531 62.714844 33.527344 62.816406 32.902344 62.816406 C 31.945312 62.816406 31.585938 62.585938 31.585938 62.078125 C 31.585938 61.628906 31.714844 61.421875 32.015625 61.101562 Z M 33.476562 58.84375 C 32.898438 58.84375 32.582031 58.632812 32.582031 58.132812 C 32.582031 57.398438 33.011719 56.96875 33.757812 56.96875 C 34.355469 56.96875 34.644531 57.21875 34.644531 57.707031 C 34.644531 58.441406 34.226562 58.84375 33.476562 58.84375 Z M 40.164062 55.921875 C 39.605469 55.921875 39.109375 56.199219 38.492188 56.683594 L 38.402344 56.3125 L 37.304688 56.3125 L 36.539062 61.902344 L 37.863281 61.902344 L 38.441406 57.664062 C 38.828125 57.421875 39.308594 57.078125 39.714844 57.078125 C 40.214844 57.078125 40.394531 57.316406 40.394531 57.773438 C 40.394531 57.882812 40.382812 58.210938 40.363281 58.328125 L 39.875 61.902344 L 41.199219 61.902344 L 41.6875 58.300781 C 41.707031 58.132812 41.726562 57.855469 41.726562 57.695312 C 41.726562 56.746094 41.277344 55.921875 40.164062 55.921875 Z M 44.242188 60.5 L 44.253906 60.363281 L 44.832031 56.3125 L 42.628906 56.3125 L 42.492188 57.328125 L 43.457031 57.328125 C 43.375 57.328125 43.328125 57.417969 43.316406 57.496094 L 42.917969 60.195312 C 42.898438 60.328125 42.890625 60.597656 42.890625 60.707031 C 42.890625 61.402344 43.265625 61.902344 44.042969 61.902344 L 44.722656 61.902344 L 44.871094 60.886719 L 44.441406 60.886719 C 44.292969 60.886719 44.242188 60.621094 44.242188 60.5 Z M 45.101562 54.28125 L 43.804688 54.28125 C 43.726562 54.28125 43.726562 53.984375 43.714844 54.085938 L 43.535156 55.519531 C 43.527344 55.609375 43.527344 55.804688 43.605469 55.804688 L 44.902344 55.804688 C 44.980469 55.804688 44.980469 55.457031 44.988281 55.367188 L 45.171875 54.261719 C 45.179688 54.160156 45.179688 54.28125 45.101562 54.28125 Z M 47.800781 60.535156 C 47.472656 60.535156 47.3125 60.394531 47.3125 60.097656 L 47.324219 60.078125 L 47.742188 57.328125 L 49.253906 57.328125 L 49.714844 56.3125 L 47.882812 56.3125 L 48.1875 54.074219 L 46.796875 54.519531 L 46.546875 56.3125 L 45.738281 56.3125 L 45.601562 57.328125 L 46.535156 57.328125 C 46.445312 57.835938 46.355469 57.507812 46.347656 57.605469 L 45.988281 60.015625 C 45.96875 60.125 45.96875 60.207031 45.96875 60.304688 C 45.96875 61.25 46.664062 61.605469 47.503906 61.605469 C 48.28125 61.605469 48.90625 61.378906 49.394531 60.96875 L 48.777344 60.210938 C 48.46875 60.398438 48.257812 60.535156 47.800781 60.535156 Z M 52.660156 55.921875 C 50.839844 55.921875 49.984375 56.789062 49.695312 58.75 C 49.664062 58.992188 49.644531 59.21875 49.644531 59.4375 C 49.644531 60.785156 50.332031 61.589844 51.84375 61.589844 C 53.019531 61.589844 53.898438 61.101562 54.363281 60.207031 L 53.359375 59.796875 C 53.070312 60.234375 52.679688 60.535156 51.992188 60.535156 C 51.257812 60.535156 50.957031 60.335938 50.957031 59.679688 C 50.957031 59.550781 50.96875 59.359375 50.988281 59.359375 L 54.582031 59.359375 C 54.632812 58.851562 54.695312 58.492188 54.695312 58.195312 C 54.695312 57.199219 54.316406 55.921875 52.660156 55.921875 Z M 53.347656 58.34375 L 51.15625 58.34375 C 51.378906 57.835938 51.746094 57.050781 52.503906 57.050781 C 53.089844 57.050781 53.378906 57.394531 53.378906 57.980469 C 53.378906 58.082031 53.367188 58.34375 53.347656 58.34375 Z M 58.359375 55.921875 C 57.878906 55.921875 57.433594 56.199219 56.984375 56.625 L 56.90625 56.3125 L 55.808594 56.3125 L 55.042969 61.902344 L 56.378906 61.902344 L 56.964844 57.574219 C 57.3125 57.363281 57.710938 57.1875 58.089844 57.1875 C 58.328125 57.1875 58.558594 57.148438 58.777344 57.179688 L 58.949219 56.023438 C 58.746094 55.984375 58.546875 55.921875 58.359375 55.921875 Z M 24.535156 50.277344 C 21.519531 48.972656 18.699219 45.660156 18.691406 42.273438 C 18.683594 38.578125 21.027344 35.441406 23.9375 33.378906 C 23.585938 34.703125 23.398438 35.910156 24.265625 37.09375 C 25.070312 38.195312 26.484375 38.730469 27.816406 38.4375 C 30.933594 37.757812 31.074219 34.332031 29.226562 32.335938 C 27.402344 30.359375 25.632812 28.128906 26.328125 25.261719 C 26.679688 23.824219 27.558594 22.480469 28.675781 21.515625 C 27.820312 23.773438 30.257812 26 31.867188 27.109375 C 34.65625 29.035156 37.71875 30.488281 40.28125 32.742188 C 42.980469 35.113281 44.972656 38.316406 44.570312 42.035156 C 44.136719 46.0625 40.933594 48.863281 37.34375 50.277344 C 44.929688 48.605469 52.769531 42.714844 52.933594 34.300781 C 53.066406 27.378906 48.316406 22.050781 42.433594 19 L 42.125 18.832031 C 42.285156 19.222656 42.339844 19.554688 42.332031 19.855469 C 42.386719 19.632812 42.421875 19.410156 42.433594 19.175781 C 42.429688 19.464844 42.390625 19.738281 42.324219 19.996094 L 42.332031 19.855469 C 42.246094 20.226562 42.097656 20.574219 41.898438 20.890625 L 41.984375 20.800781 C 40.808594 22.746094 37.632812 23.167969 36.0625 21.152344 C 33.539062 17.910156 36.117188 14.414062 36.476562 10.980469 C 36.929688 6.675781 34.230469 2.5 30.882812 0 C 32.726562 2.980469 30.296875 6.925781 28.355469 9.128906 C 26.472656 11.269531 24.179688 13.054688 22.101562 14.996094 C 19.867188 17.082031 17.71875 19.277344 15.882812 21.726562 C 12.210938 26.625 9.964844 32.789062 11.617188 38.902344 C 13.265625 45.011719 18.558594 48.902344 24.535156 50.277344 Z M 24.535156 50.277344 "/>
</g>
</svg>
