<?xml version="1.0" encoding="UTF-8"?>
<svg xmlns="http://www.w3.org/2000/svg" xmlns:xlink="http://www.w3.org/1999/xlink" width="64px" height="800px" viewBox="0 0 64 64" version="1.1">
<g id="surface1">
<path style=" stroke:none;fill-rule:nonzero;fill:rgb(100%,42.352941%,21.568627%);fill-opacity:1;" d="M 63.738281 36.0625 C 65.976562 18.53125 53.597656 2.5 36.09375 0.261719 C 18.59375 -1.976562 2.5 10.402344 0.261719 27.90625 C -1.976562 45.40625 10.402344 61.464844 27.90625 63.738281 C 45.4375 65.976562 61.464844 53.597656 63.738281 36.0625 Z M 63.738281 36.0625 "/>
<path style=" stroke:none;fill-rule:nonzero;fill:rgb(100%,100%,100%);fill-opacity:1;" d="M 43.550781 20.546875 L 30.046875 34.046875 L 26.242188 30.242188 C 39.519531 16.960938 40.832031 18.113281 43.550781 20.546875 Z M 43.550781 20.546875 "/>
<path style=" stroke:none;fill-rule:nonzero;fill:rgb(100%,42.352941%,21.568627%);fill-opacity:1;" d="M 30.046875 34.367188 C 29.953125 34.367188 29.886719 34.335938 29.824219 34.273438 L 25.984375 30.464844 C 25.855469 30.335938 25.855469 30.144531 25.984375 30.015625 C 39.488281 16.515625 40.894531 17.792969 43.742188 20.355469 C 43.804688 20.417969 43.835938 20.480469 43.835938 20.578125 C 43.835938 20.675781 43.804688 20.738281 43.742188 20.800781 L 30.242188 34.273438 C 30.207031 34.335938 30.113281 34.367188 30.046875 34.367188 Z M 26.6875 30.242188 L 30.046875 33.601562 L 43.070312 20.578125 C 40.703125 18.464844 39.101562 17.828125 26.6875 30.242188 Z M 26.6875 30.242188 "/>
<path style=" stroke:none;fill-rule:nonzero;fill:rgb(100%,100%,100%);fill-opacity:1;" d="M 33.917969 37.917969 L 30.242188 34.238281 L 43.742188 20.738281 C 47.355469 24.386719 41.949219 30.304688 33.917969 37.917969 Z M 33.917969 37.917969 "/>
<path style=" stroke:none;fill-rule:nonzero;fill:rgb(100%,42.352941%,21.568627%);fill-opacity:1;" d="M 33.917969 38.238281 C 33.824219 38.238281 33.757812 38.207031 33.695312 38.144531 L 30.015625 34.464844 C 29.953125 34.398438 29.953125 34.335938 29.953125 34.238281 C 29.953125 34.144531 29.984375 34.078125 30.046875 34.015625 L 43.550781 20.515625 C 43.679688 20.386719 43.871094 20.386719 43.996094 20.515625 C 44.828125 21.28125 45.277344 22.371094 45.246094 23.488281 C 45.179688 27.039062 41.148438 31.550781 34.175781 38.144531 C 34.078125 38.207031 33.984375 38.238281 33.917969 38.238281 Z M 30.6875 34.238281 C 32.734375 36.320312 33.601562 37.152344 33.917969 37.472656 C 39.292969 32.351562 44.507812 27.105469 44.542969 23.488281 C 44.574219 22.65625 44.253906 21.824219 43.710938 21.1875 Z M 30.6875 34.238281 "/>
<path style=" stroke:none;fill-rule:nonzero;fill:rgb(100%,100%,100%);fill-opacity:1;" d="M 26.304688 30.335938 L 29.023438 33.054688 C 29.089844 33.121094 29.089844 33.183594 29.023438 33.246094 C 28.992188 33.28125 28.992188 33.28125 28.960938 33.28125 L 23.328125 34.496094 C 23.042969 34.527344 22.785156 34.335938 22.722656 34.046875 C 22.691406 33.886719 22.753906 33.726562 22.851562 33.632812 L 26.113281 30.367188 C 26.175781 30.304688 26.273438 30.273438 26.304688 30.335938 Z M 26.304688 30.335938 "/>
<path style=" stroke:none;fill-rule:nonzero;fill:rgb(100%,42.352941%,21.568627%);fill-opacity:1;" d="M 23.234375 34.816406 C 22.753906 34.816406 22.402344 34.429688 22.402344 33.953125 C 22.402344 33.726562 22.496094 33.503906 22.65625 33.34375 L 25.921875 30.082031 C 26.113281 29.921875 26.367188 29.921875 26.5625 30.082031 L 29.28125 32.800781 C 29.472656 32.960938 29.472656 33.246094 29.28125 33.441406 C 29.214844 33.503906 29.152344 33.535156 29.054688 33.566406 L 23.425781 34.785156 C 23.363281 34.785156 23.296875 34.816406 23.234375 34.816406 Z M 26.210938 30.6875 L 23.074219 33.824219 C 23.007812 33.886719 22.976562 33.984375 23.042969 34.078125 C 23.074219 34.175781 23.167969 34.207031 23.265625 34.175781 L 28.542969 33.023438 Z M 26.210938 30.6875 "/>
<path style=" stroke:none;fill-rule:nonzero;fill:rgb(100%,100%,100%);fill-opacity:1;" d="M 50.683594 13.058594 C 48.636719 11.074219 45.339844 11.140625 43.359375 13.21875 C 41.375 15.300781 41.4375 18.5625 43.519531 20.546875 C 45.214844 22.179688 47.773438 22.464844 49.789062 21.25 L 46.140625 17.601562 Z M 50.683594 13.058594 "/>
<path style=" stroke:none;fill-rule:nonzero;fill:rgb(100%,42.352941%,21.568627%);fill-opacity:1;" d="M 47.101562 22.304688 C 44.0625 22.304688 41.597656 19.84375 41.597656 16.804688 C 41.597656 13.761719 44.0625 11.300781 47.101562 11.300781 C 48.507812 11.300781 49.886719 11.84375 50.910156 12.835938 C 50.972656 12.898438 51.003906 12.964844 51.003906 13.058594 C 51.003906 13.15625 50.972656 13.21875 50.910156 13.285156 L 46.589844 17.601562 L 49.980469 20.992188 C 50.109375 21.121094 50.109375 21.3125 49.980469 21.441406 C 49.949219 21.472656 49.949219 21.472656 49.917969 21.507812 C 49.085938 22.019531 48.09375 22.304688 47.101562 22.304688 Z M 47.101562 11.972656 C 44.414062 11.972656 42.238281 14.148438 42.269531 16.835938 C 42.269531 19.523438 44.445312 21.699219 47.132812 21.664062 C 47.867188 21.664062 48.605469 21.507812 49.277344 21.152344 L 45.917969 17.828125 C 45.851562 17.761719 45.820312 17.699219 45.820312 17.601562 C 45.820312 17.507812 45.851562 17.441406 45.917969 17.378906 L 50.203125 13.089844 C 49.339844 12.355469 48.253906 11.972656 47.101562 11.972656 Z M 47.101562 11.972656 "/>
<path style=" stroke:none;fill-rule:nonzero;fill:rgb(100%,100%,100%);fill-opacity:1;" d="M 50.78125 13.15625 L 50.714844 13.089844 L 46.140625 17.601562 L 49.757812 21.21875 C 50.109375 20.992188 50.460938 20.738281 50.75 20.449219 C 52.796875 18.433594 52.796875 15.171875 50.78125 13.15625 Z M 50.78125 13.15625 "/>
<path style=" stroke:none;fill-rule:nonzero;fill:rgb(100%,42.352941%,21.568627%);fill-opacity:1;" d="M 49.789062 21.570312 C 49.691406 21.570312 49.628906 21.539062 49.566406 21.472656 L 45.917969 17.828125 C 45.851562 17.761719 45.820312 17.699219 45.820312 17.601562 C 45.820312 17.507812 45.851562 17.441406 45.917969 17.378906 L 50.460938 12.835938 C 50.589844 12.707031 50.78125 12.707031 50.910156 12.835938 L 51.003906 12.898438 C 53.148438 15.042969 53.148438 18.5 51.035156 20.675781 C 50.714844 20.992188 50.363281 21.28125 49.980469 21.507812 C 49.886719 21.539062 49.820312 21.570312 49.789062 21.570312 Z M 46.589844 17.601562 L 49.820312 20.835938 C 50.078125 20.675781 50.332031 20.449219 50.523438 20.257812 C 52.347656 18.433594 52.445312 15.457031 50.683594 13.539062 Z M 46.589844 17.601562 "/>
<path style=" stroke:none;fill-rule:nonzero;fill:rgb(100%,100%,100%);fill-opacity:1;" d="M 44.09375 21.121094 C 43.324219 20.355469 42.078125 20.355469 41.308594 21.121094 L 29.25 33.183594 L 31.265625 35.199219 L 44.03125 24 C 44.863281 23.296875 44.925781 22.050781 44.222656 21.21875 C 44.15625 21.1875 44.125 21.152344 44.09375 21.121094 Z M 44.09375 21.121094 "/>
<path style=" stroke:none;fill-rule:nonzero;fill:rgb(100%,42.352941%,21.568627%);fill-opacity:1;" d="M 31.230469 35.519531 C 31.136719 35.519531 31.070312 35.488281 31.007812 35.421875 L 28.992188 33.40625 C 28.863281 33.28125 28.863281 33.085938 28.992188 32.960938 L 41.054688 20.898438 C 41.949219 20.003906 43.390625 20.003906 44.285156 20.898438 C 45.179688 21.792969 45.179688 23.234375 44.285156 24.128906 C 44.253906 24.160156 44.222656 24.195312 44.191406 24.226562 L 31.425781 35.421875 C 31.390625 35.488281 31.328125 35.519531 31.230469 35.519531 Z M 29.695312 33.183594 L 31.265625 34.75 L 43.804688 23.746094 C 44.507812 23.167969 44.574219 22.113281 43.996094 21.410156 C 43.421875 20.707031 42.367188 20.640625 41.664062 21.21875 C 41.628906 21.25 41.597656 21.28125 41.535156 21.3125 Z M 29.695312 33.183594 "/>
<path style=" stroke:none;fill-rule:nonzero;fill:rgb(100%,100%,100%);fill-opacity:1;" d="M 20.003906 46.910156 C 19.875 46.972656 19.808594 47.101562 19.84375 47.230469 L 20.386719 49.53125 C 20.515625 49.851562 20.320312 50.238281 19.96875 50.332031 C 19.714844 50.429688 19.425781 50.332031 19.265625 50.140625 L 15.746094 46.652344 L 27.234375 35.167969 L 31.199219 35.230469 L 33.886719 37.917969 C 33.246094 38.460938 29.375 42.207031 20.003906 46.910156 Z M 20.003906 46.910156 "/>
<path style=" stroke:none;fill-rule:nonzero;fill:rgb(100%,42.352941%,21.568627%);fill-opacity:1;" d="M 19.746094 50.652344 C 19.492188 50.652344 19.234375 50.558594 19.074219 50.363281 L 15.585938 46.878906 C 15.523438 46.8125 15.492188 46.75 15.492188 46.652344 C 15.492188 46.558594 15.523438 46.492188 15.585938 46.429688 L 27.074219 34.945312 C 27.136719 34.878906 27.234375 34.847656 27.296875 34.847656 L 31.265625 34.910156 C 31.359375 34.910156 31.425781 34.945312 31.488281 35.007812 L 34.175781 37.695312 C 34.238281 37.757812 34.273438 37.855469 34.273438 37.949219 C 34.273438 38.046875 34.238281 38.109375 34.144531 38.175781 L 33.917969 38.367188 C 30.527344 41.34375 25.921875 44.316406 20.195312 47.164062 L 20.738281 49.4375 C 20.835938 49.851562 20.640625 50.300781 20.257812 50.523438 C 20.066406 50.621094 19.90625 50.652344 19.746094 50.652344 Z M 16.226562 46.652344 L 19.523438 49.917969 C 19.617188 50.078125 19.808594 50.140625 19.96875 50.042969 C 20.128906 49.949219 20.195312 49.757812 20.097656 49.597656 L 19.554688 47.292969 C 19.492188 47.003906 19.617188 46.75 19.875 46.621094 C 25.539062 43.773438 30.113281 40.832031 33.472656 37.917969 L 31.105469 35.550781 L 27.425781 35.488281 Z M 16.226562 46.652344 "/>
<path style=" stroke:none;fill-rule:nonzero;fill:rgb(100%,100%,100%);fill-opacity:1;" d="M 13.027344 49.40625 L 15.777344 46.652344 L 19.875 50.75 L 13.347656 50.300781 C 13.058594 50.269531 12.867188 50.011719 12.898438 49.726562 C 12.898438 49.597656 12.929688 49.46875 13.027344 49.40625 Z M 13.027344 49.40625 "/>
<path style=" stroke:none;fill-rule:nonzero;fill:rgb(100%,42.352941%,21.568627%);fill-opacity:1;" d="M 19.875 51.035156 L 13.316406 50.589844 C 12.835938 50.558594 12.515625 50.140625 12.546875 49.660156 C 12.578125 49.46875 12.644531 49.277344 12.804688 49.148438 L 15.554688 46.398438 C 15.683594 46.269531 15.875 46.269531 16.003906 46.398438 L 20.097656 50.492188 C 20.195312 50.589844 20.226562 50.714844 20.164062 50.84375 C 20.097656 50.972656 20.003906 51.035156 19.875 51.035156 Z M 15.777344 47.101562 L 13.25 49.628906 C 13.15625 49.691406 13.15625 49.851562 13.25 49.917969 C 13.285156 49.949219 13.316406 49.980469 13.378906 49.980469 L 19.042969 50.363281 Z M 15.777344 47.101562 "/>
<path style=" stroke:none;fill-rule:nonzero;fill:rgb(100%,42.352941%,21.568627%);fill-opacity:1;" d="M 26.113281 36.640625 C 25.921875 36.640625 25.792969 36.480469 25.792969 36.320312 C 25.792969 36.222656 25.824219 36.160156 25.890625 36.09375 L 28.992188 32.992188 C 29.121094 32.863281 29.3125 32.863281 29.441406 32.992188 L 31.457031 35.007812 C 31.550781 35.101562 31.585938 35.199219 31.550781 35.328125 C 31.519531 35.421875 31.425781 35.519531 31.296875 35.550781 L 26.175781 36.640625 C 26.144531 36.640625 26.113281 36.640625 26.113281 36.640625 Z M 29.214844 33.664062 L 27.105469 35.773438 L 30.558594 35.039062 Z M 29.214844 33.664062 "/>
<path style=" stroke:none;fill-rule:nonzero;fill:rgb(100%,100%,100%);fill-opacity:1;" d="M 31.199219 35.230469 L 27.679688 36 C 27.425781 36.0625 27.167969 35.902344 27.105469 35.648438 C 27.074219 35.488281 27.105469 35.328125 27.234375 35.199219 L 29.183594 33.246094 Z M 31.199219 35.230469 "/>
<path style=" stroke:none;fill-rule:nonzero;fill:rgb(100%,42.352941%,21.568627%);fill-opacity:1;" d="M 27.617188 36.320312 C 27.167969 36.320312 26.816406 35.96875 26.816406 35.519531 C 26.816406 35.296875 26.914062 35.101562 27.039062 34.945312 L 28.992188 32.992188 C 29.121094 32.863281 29.3125 32.863281 29.441406 32.992188 L 31.457031 35.007812 C 31.550781 35.101562 31.585938 35.199219 31.550781 35.328125 C 31.519531 35.421875 31.425781 35.519531 31.296875 35.550781 L 27.777344 36.320312 C 27.710938 36.320312 27.648438 36.320312 27.617188 36.320312 Z M 29.214844 33.664062 L 27.488281 35.390625 C 27.425781 35.457031 27.425781 35.519531 27.457031 35.582031 C 27.488281 35.648438 27.554688 35.679688 27.648438 35.679688 L 30.59375 35.039062 Z M 29.214844 33.664062 "/>
<path style=" stroke:none;fill-rule:nonzero;fill:rgb(100%,42.352941%,21.568627%);fill-opacity:1;" d="M 50.8125 16.226562 C 50.75 16.035156 50.523438 15.9375 50.332031 16.003906 C 50.140625 16.066406 50.042969 16.289062 50.109375 16.484375 C 50.109375 16.515625 50.140625 16.546875 50.140625 16.578125 C 50.332031 16.960938 50.269531 17.441406 50.011719 17.792969 C 49.886719 17.953125 49.917969 18.179688 50.042969 18.304688 C 50.203125 18.433594 50.429688 18.402344 50.558594 18.242188 C 51.035156 17.632812 51.132812 16.867188 50.8125 16.226562 Z M 50.8125 16.226562 "/>
</g>
</svg>
