<?xml version="1.0" encoding="UTF-8"?>
<svg xmlns="http://www.w3.org/2000/svg" xmlns:xlink="http://www.w3.org/1999/xlink" width="64px" height="64px" viewBox="0 0 64 64" version="1.1">
<defs>
<linearGradient id="linear0" gradientUnits="userSpaceOnUse" x1="12.4809" y1="2" x2="12.4809" y2="22.7407" gradientTransform="matrix(2,0,0,2,0,0)">
<stop offset="0" style="stop-color:rgb(19.607843%,49.411765%,74.117647%);stop-opacity:1;"/>
<stop offset="1" style="stop-color:rgb(8.235294%,39.607843%,65.490196%);stop-opacity:1;"/>
</linearGradient>
<linearGradient id="linear1" gradientUnits="userSpaceOnUse" x1="19.519" y1="9.25928" x2="19.519" y2="30" gradientTransform="matrix(2,0,0,2,0,0)">
<stop offset="0" style="stop-color:rgb(100%,85.490196%,29.411765%);stop-opacity:1;"/>
<stop offset="1" style="stop-color:rgb(97.647059%,77.647059%,0%);stop-opacity:1;"/>
</linearGradient>
</defs>
<g id="surface1">
<path style=" stroke:none;fill-rule:evenodd;fill:url(#linear0);" d="M 26.03125 4 C 21.636719 4 18.078125 7.449219 18.078125 11.703125 L 18.078125 17.035156 L 31.847656 17.035156 L 31.847656 18.519531 L 11.957031 18.519531 C 7.5625 18.519531 4 21.96875 4 26.222656 L 4 37.777344 C 4 42.03125 7.5625 45.480469 11.957031 45.480469 L 16.546875 45.480469 L 16.546875 38.964844 C 16.546875 34.707031 20.109375 31.257812 24.503906 31.257812 L 39.191406 31.257812 C 42.910156 31.257812 45.921875 28.339844 45.921875 24.742188 L 45.921875 11.703125 C 45.921875 7.449219 42.363281 4 37.96875 4 Z M 24.195312 13.480469 C 25.71875 13.480469 26.949219 12.289062 26.949219 10.816406 C 26.949219 9.34375 25.71875 8.148438 24.195312 8.148438 C 22.675781 8.148438 21.441406 9.34375 21.441406 10.816406 C 21.441406 12.289062 22.675781 13.480469 24.195312 13.480469 Z M 24.195312 13.480469 "/>
<path style=" stroke:none;fill-rule:evenodd;fill:url(#linear1);" d="M 37.96875 60 C 42.359375 60 45.921875 56.550781 45.921875 52.296875 L 45.921875 46.964844 L 32.152344 46.964844 L 32.152344 45.480469 L 52.042969 45.480469 C 56.4375 45.480469 60 42.03125 60 37.777344 L 60 26.222656 C 60 21.96875 56.4375 18.519531 52.042969 18.519531 L 47.453125 18.519531 L 47.453125 25.035156 C 47.453125 29.292969 43.890625 32.742188 39.496094 32.742188 L 24.808594 32.742188 C 21.089844 32.742188 18.078125 35.660156 18.078125 39.257812 L 18.078125 52.296875 C 18.078125 56.550781 21.636719 60 26.03125 60 Z M 39.804688 50.519531 C 38.28125 50.519531 37.046875 51.710938 37.046875 53.183594 C 37.046875 54.65625 38.28125 55.851562 39.804688 55.851562 C 41.324219 55.851562 42.558594 54.65625 42.558594 53.183594 C 42.558594 51.710938 41.324219 50.519531 39.804688 50.519531 Z M 39.804688 50.519531 "/>
</g>
</svg>
