<svg width="71" height="64" viewBox="0 0 71 64" fill="none" xmlns="http://www.w3.org/2000/svg">
<g clip-path="url(#clip0_1_483)">
<path d="M35.6569 38.7725C39.3293 38.7725 42.3063 35.7404 42.3063 32C42.3063 28.2597 39.3293 25.2275 35.6569 25.2275C31.9846 25.2275 29.0076 28.2597 29.0076 32C29.0076 35.7404 31.9846 38.7725 35.6569 38.7725Z" fill="#087EA4"/>
<path d="M35.6569 47.2382C54.0186 47.2382 68.9037 40.4158 68.9037 32.0001C68.9037 23.5843 54.0186 16.762 35.6569 16.762C17.2952 16.762 2.41016 23.5843 2.41016 32.0001C2.41016 40.4158 17.2952 47.2382 35.6569 47.2382Z" stroke="#087EA4" stroke-width="3"/>
<path d="M22.7003 39.619C31.8812 55.8152 45.1246 65.5336 52.2803 61.3257C59.4361 57.1178 57.7944 40.5771 48.6136 24.3809C39.4328 8.18475 26.1893 -1.53366 19.0336 2.67422C11.8778 6.88211 13.5195 23.4228 22.7003 39.619Z" stroke="#087EA4" stroke-width="3"/>
<path d="M22.7002 24.3808C13.5193 40.577 11.8777 57.1177 19.0334 61.3256C26.1892 65.5335 39.4326 55.8151 48.6134 39.6189C57.7943 23.4228 59.4359 6.88205 52.2802 2.67416C45.1244 -1.53372 31.881 8.18469 22.7002 24.3808Z" stroke="#087EA4" stroke-width="3"/>
</g>
<defs>
<clipPath id="clip0_1_483">
<rect width="69.8182" height="64" fill="white" transform="translate(0.747803)"/>
</clipPath>
</defs>
</svg>
